<svg width="800px" height="800px" viewBox="0 0 24 24" fill="none" xmlns="http://www.w3.org/2000/svg">
    <symbol id="icon" viewBox="0 0 24 24" fill="none">
        <defs>
            <style>
                .cls-1 {
                    fill: var(--color-1);
                    transition: all 0.2s ease-in-out;
                }
            </style>
        </defs>
        <g transform="matrix(1, 0, 0, 1, -0.332628, 0.086)">
            <path class="cls-1"
                d="M 19.261 5.49 C 17.966 4.89 16.588 4.449 15.136 4.196 C 14.957 4.512 14.747 4.943 14.61 5.29 C 13.074 5.059 11.548 5.059 10.043 5.29 C 9.896 4.943 9.686 4.512 9.507 4.196 C 8.055 4.449 6.676 4.89 5.382 5.49 C 2.773 9.425 2.068 13.266 2.415 17.043 C 4.151 18.337 5.824 19.116 7.476 19.632 C 7.886 19.074 8.244 18.474 8.56 17.853 C 7.96 17.632 7.392 17.348 6.855 17.022 C 7.003 16.917 7.139 16.801 7.276 16.696 C 10.57 18.232 14.137 18.232 17.388 16.696 C 17.525 16.812 17.661 16.917 17.809 17.022 C 17.272 17.348 16.693 17.622 16.104 17.853 C 16.42 18.474 16.778 19.074 17.188 19.632 C 18.84 19.116 20.523 18.337 22.249 17.043 C 22.659 12.656 21.544 8.857 19.282 5.49 L 19.261 5.49 Z M 9.002 14.728 C 8.013 14.728 7.203 13.813 7.203 12.687 C 7.203 11.561 7.992 10.646 9.002 10.646 C 10.012 10.646 10.812 11.561 10.801 12.687 C 10.801 13.803 10.012 14.728 9.002 14.728 Z M 15.641 14.728 C 14.652 14.728 13.842 13.813 13.842 12.687 C 13.842 11.561 14.631 10.646 15.641 10.646 C 16.651 10.646 17.451 11.561 17.44 12.687 C 17.44 13.803 16.651 14.728 15.641 14.728 Z">
            </path>
        </g>
    </symbol>
</svg>