<?xml version="1.0" encoding="utf-8"?>
<svg width="800px" height="800px" viewBox="0 0 24 24" fill="none" xmlns="http://www.w3.org/2000/svg">
    <symbol id="icon" viewBox="0 0 24 24" fill="none">
        <defs>
            <style>
                .cls-1 {
                    fill: var(--color-1);
                    transition: all 0.2s ease-in-out;
                }
            </style>
        </defs>
        <g transform="matrix(1.249973, 0, 0, 1.249973, -2.999896, -2.998793)">
            <path class="cls-1"
                d="M 18.72 4 L 5.37 4 C 5.198 3.992 5.026 4.018 4.864 4.076 C 4.702 4.135 4.553 4.225 4.426 4.341 C 4.298 4.457 4.195 4.597 4.122 4.753 C 4.049 4.909 4.008 5.078 4 5.25 L 4 18.63 C 4.01 18.99 4.158 19.333 4.412 19.588 C 4.667 19.842 5.01 19.99 5.37 20 L 18.72 20 C 19.07 19.984 19.4 19.832 19.64 19.576 C 19.879 19.32 20.008 18.98 20 18.63 L 20 5.25 C 20.003 5.082 19.972 4.916 19.908 4.761 C 19.844 4.606 19.749 4.466 19.63 4.349 C 19.51 4.232 19.367 4.141 19.211 4.081 C 19.054 4.021 18.887 3.993 18.72 4 Z M 9 17.34 L 6.67 17.34 L 6.67 10.21 L 9 10.21 L 9 17.34 Z M 7.89 9.13 C 7.727 9.136 7.565 9.108 7.414 9.048 C 7.263 8.988 7.126 8.897 7.011 8.782 C 6.897 8.666 6.807 8.528 6.748 8.376 C 6.69 8.225 6.663 8.063 6.67 7.9 C 6.663 7.736 6.69 7.572 6.75 7.419 C 6.81 7.265 6.901 7.126 7.018 7.011 C 7.135 6.895 7.274 6.805 7.428 6.746 C 7.582 6.687 7.746 6.661 7.91 6.67 C 8.073 6.664 8.235 6.692 8.386 6.752 C 8.537 6.812 8.674 6.903 8.789 7.018 C 8.903 7.134 8.993 7.272 9.052 7.423 C 9.11 7.575 9.137 7.737 9.13 7.9 C 9.137 8.064 9.11 8.228 9.05 8.381 C 8.99 8.535 8.899 8.674 8.782 8.789 C 8.665 8.905 8.526 8.995 8.372 9.054 C 8.218 9.113 8.054 9.138 7.89 9.13 Z M 17.34 17.34 L 15 17.34 L 15 13.44 C 15 12.51 14.67 11.87 13.84 11.87 C 13.582 11.872 13.331 11.954 13.122 12.105 C 12.912 12.255 12.755 12.466 12.67 12.71 C 12.605 12.893 12.578 13.087 12.59 13.28 L 12.59 17.34 L 10.29 17.34 L 10.29 10.21 L 12.59 10.21 L 12.59 11.21 C 12.795 10.834 13.099 10.523 13.469 10.309 C 13.84 10.095 14.262 9.988 14.69 10 C 16.2 10 17.34 11 17.34 13.13 L 17.34 17.34 Z">
            </path>
        </g>
    </symbol>
</svg>