<svg width="56" height="56" viewBox="0 0 56 56" fill="none" xmlns="http://www.w3.org/2000/svg">
    <symbol id="icon" viewBox="0 0 56 56" fill="none">
        <defs>
            <style>
                .cls-1 {
                    fill: var(--color-1);
                    transition: all 0.2s ease-in-out;
                }
            </style>
        </defs>
        <path class="cls-1"
            d="M34.5922 18.734H36.0868L40.3461 14.4747L40.5553 12.6663C38.1153 10.5126 35.1665 9.01653 31.9876 8.3194C28.8085 7.62224 25.5042 7.74701 22.3869 8.68192C19.2695 9.61686 16.4419 11.331 14.1713 13.6625C11.9006 15.9941 10.2618 18.866 9.40966 22.007C9.88417 21.8125 10.4098 21.7809 10.9042 21.9174L19.4229 20.5125C19.4229 20.5125 19.8563 19.7951 20.0805 19.8399C21.9058 17.8353 24.4283 16.6042 27.1316 16.3985C29.835 16.193 32.5147 17.0285 34.6221 18.734H34.5922Z" />
        <path class="cls-1"
            d="M46.4147 22.0056C45.4357 18.4002 43.4255 15.1591 40.631 12.6798L34.6529 18.6578C35.8988 19.6759 36.8973 20.9634 37.5729 22.4236C38.2486 23.8837 38.584 25.4782 38.5535 27.0868V28.148C39.2522 28.148 39.9441 28.2856 40.5897 28.553C41.2352 28.8203 41.8217 29.2122 42.3157 29.7063C42.8098 30.2004 43.2016 30.7869 43.469 31.4324C43.7364 32.0779 43.8741 32.7697 43.8741 33.4685C43.8741 34.1672 43.7364 34.859 43.469 35.5045C43.2016 36.15 42.8098 36.7365 42.3157 37.2306C41.8217 37.7247 41.2352 38.1166 40.5897 38.3839C39.9441 38.6513 39.2522 38.7889 38.5535 38.7889H27.9127L26.8516 39.8649V46.2466L27.9127 47.3077H38.5535C41.525 47.3308 44.425 46.3969 46.8246 44.6441C49.2241 42.8913 50.9957 40.4127 51.8773 37.575C52.759 34.7372 52.7039 31.6911 51.7201 28.8872C50.7363 26.0831 48.8761 23.6703 46.4147 22.0056Z" />
        <path class="cls-1"
            d="M17.2564 47.2497H27.8974V38.7309H17.2564C16.4983 38.7307 15.7491 38.5676 15.0595 38.2526L13.5649 38.716L9.2757 42.9753L8.90207 44.4698C11.3074 46.2861 14.2425 47.2627 17.2564 47.2497Z" />
        <path class="cls-1"
            d="M17.2565 19.615C14.3734 19.6322 11.5675 20.5496 9.23099 22.2387C6.89443 23.928 5.14383 26.3049 4.22368 29.0373C3.30353 31.7698 3.25978 34.7214 4.09855 37.4799C4.93733 40.2385 6.61673 42.6661 8.90216 44.4239L15.0745 38.2516C14.2901 37.8972 13.6034 37.3578 13.0734 36.6797C12.5433 36.0016 12.1856 35.205 12.0311 34.3583C11.8765 33.5115 11.9297 32.64 12.1861 31.8183C12.4425 30.9966 12.8943 30.2495 13.503 29.6409C14.1116 29.0322 14.8588 28.5804 15.6804 28.324C16.5021 28.0676 17.3736 28.0144 18.2204 28.169C19.0671 28.3235 19.8637 28.6812 20.5418 29.2113C21.2199 29.7413 21.7593 30.428 22.1137 31.2124L28.286 25.0401C26.9905 23.3464 25.3207 21.9755 23.4074 21.0343C21.494 20.0932 19.3889 19.6074 17.2565 19.615Z" />
    </symbol>

</svg>