<svg width="64" height="64" viewBox="0 0 64 64" fill="none" xmlns="http://www.w3.org/2000/svg">
<mask id="mask0_737_89331" style="mask-type:luminance" maskUnits="userSpaceOnUse" x="0" y="28" width="64" height="8">
<path d="M64 28H0V35.8457H64V28Z" fill="white"/>
</mask>
<g mask="url(#mask0_737_89331)">
<path d="M61.401 32.9811C61.9835 32.8805 62.5323 32.6382 62.9991 32.2756C63.212 32.0528 63.3749 31.7871 63.4771 31.4963C63.5793 31.2056 63.6184 30.8964 63.5917 30.5894C63.5934 30.0838 63.4541 29.5879 63.1896 29.1571C62.9973 28.8293 62.7263 28.5547 62.401 28.3581C62.0757 28.1616 61.7065 28.0494 61.3269 28.0317H60.9424L60.0428 28H55.9718C55.7249 28 55.6191 28.1023 55.6191 28.3528V35.4858C55.6191 35.7328 55.7214 35.8386 55.9718 35.8386H57.0302C57.2771 35.8386 57.3829 35.7363 57.3829 35.4858V33.1223H58.6776C58.9623 33.1371 59.233 33.2506 59.4431 33.4433L61.4963 35.507C61.6834 35.6984 61.9347 35.814 62.2018 35.8316H63.7787C64.0256 35.8316 64.0856 35.6869 63.9127 35.5105L61.401 32.9811ZM61.1329 31.4642H57.3759V29.6651H61.1329C61.3171 29.6877 61.4864 29.7777 61.6082 29.9178C61.73 30.0578 61.7957 30.238 61.7926 30.4235V30.7022C61.7958 30.8882 61.7303 31.0688 61.6085 31.2094C61.4868 31.3501 61.3174 31.4408 61.1329 31.4642Z" fill="black"/>
<path d="M53.9746 34.1806H48.1433V32.7095H52.7963C53.0433 32.7095 53.1491 32.6072 53.1491 32.3567V31.4995C53.1491 31.2526 53.0468 31.1467 52.7963 31.1467H48.1398V29.6792H53.9746C54.2215 29.6792 54.3274 29.5769 54.3274 29.3264V28.3528C54.3274 28.1058 54.2251 28 53.9746 28H46.7004C46.4535 28 46.3477 28.1023 46.3477 28.3528V35.4929C46.3477 35.7398 46.45 35.8457 46.7004 35.8457H53.9746C54.2215 35.8457 54.3274 35.7434 54.3274 35.4929V34.5298C54.3274 34.2829 54.211 34.1806 53.9746 34.1806Z" fill="black"/>
<path d="M45.0587 30.5752C45.0664 30.0761 44.9279 29.5855 44.6601 29.1641C44.4666 28.8282 44.1923 28.5458 43.8621 28.3426C43.532 28.1393 43.1564 28.0216 42.7692 28H37.4212C37.1707 28 37.0684 28.1023 37.0684 28.3528V35.4858C37.0684 35.7328 37.1707 35.8386 37.4212 35.8386H38.5712C38.8182 35.8386 38.924 35.7398 38.924 35.4858V29.6686H42.0214C42.681 29.6686 43.3231 30.1061 43.3231 30.7657V35.4929C43.3231 35.7398 43.4254 35.8457 43.6759 35.8457H44.7165C44.967 35.8457 45.0693 35.7434 45.0693 35.4929L45.0587 30.5752Z" fill="black"/>
<path d="M35.443 34.1347H30.416L35.4536 29.7074C35.5547 29.6301 35.6383 29.5323 35.6991 29.4204C35.7599 29.3086 35.7964 29.1852 35.8064 29.0583V28.3528C35.8064 28.1058 35.7006 28 35.4536 28H28.1618C27.9149 28 27.809 28.1023 27.809 28.3528V29.33C27.809 29.5769 27.9113 29.6827 28.1618 29.6827H32.836L28.1477 34.0818C28.0474 34.1599 27.9643 34.2579 27.9036 34.3696C27.8429 34.4813 27.8059 34.6043 27.7949 34.7309V35.4964C27.7949 35.7434 27.8972 35.8492 28.1477 35.8492H35.4324C35.6794 35.8492 35.7852 35.7469 35.7852 35.4964V34.484C35.7923 34.237 35.69 34.1347 35.443 34.1347Z" fill="black"/>
<path d="M26.1731 28H18.8919C18.6414 28 18.5391 28.0988 18.5391 28.3528V29.3264C18.5391 29.5734 18.6379 29.6792 18.8919 29.6792H21.6364V35.4929C21.6364 35.7398 21.7387 35.8457 21.9892 35.8457H23.1534C23.4003 35.8457 23.5061 35.7434 23.5061 35.4929V29.6757H26.1766C26.4236 29.6757 26.5294 29.5734 26.5294 29.3229V28.3528C26.5223 28.1129 26.42 28 26.1731 28Z" fill="black"/>
<path d="M16.9019 34.1806H11.0812V32.7095H15.7342C15.9812 32.7095 16.087 32.6072 16.087 32.3567V31.4995C16.087 31.2526 15.9882 31.1467 15.7342 31.1467H11.0812V29.6792H16.9019C17.1488 29.6792 17.2547 29.5769 17.2547 29.3264V28.3528C17.2547 28.1058 17.1524 28 16.9019 28H9.64184C9.3949 28 9.28906 28.1023 9.28906 28.3528V35.4929C9.28906 35.7398 9.39137 35.8457 9.64184 35.8457H16.9019C17.1488 35.8457 17.2547 35.7434 17.2547 35.4929V34.5298C17.2512 34.2829 17.1488 34.1806 16.9019 34.1806Z" fill="black"/>
<path d="M7.63047 28H6.53335C6.28641 28 6.18058 28.1023 6.18058 28.3528V31.1291H1.80972V28.3528C1.80972 28.1058 1.70742 28 1.45695 28H0.352773C0.102304 28 0 28.1023 0 28.3528V35.4964C0 35.7469 0.102304 35.8492 0.352773 35.8492H1.45695C1.70389 35.8492 1.80972 35.7504 1.80972 35.4964V32.6742H6.1841V35.4964C6.1841 35.7434 6.28641 35.8492 6.53688 35.8492H7.634C7.88094 35.8492 7.98677 35.7469 7.98677 35.4964V28.3528C7.97972 28.1129 7.87741 28 7.63047 28Z" fill="black"/>
</g>
</svg>
