<svg width="64" height="64" viewBox="0 0 64 64" fill="none" xmlns="http://www.w3.org/2000/svg">
<mask id="mask0_737_89330" style="mask-type:luminance" maskUnits="userSpaceOnUse" x="4" y="4" width="56" height="56">
<path d="M60 4H4V60H60V4Z" fill="white"/>
</mask>
<g mask="url(#mask0_737_89330)">
<path d="M32.0542 5.74777C32.5613 5.74777 33.0682 5.85921 33.5389 6.08233L51.8609 15.0438C52.8023 15.5272 53.5264 16.4197 53.7437 17.461L58.2698 37.6521C58.5233 38.7305 58.2698 39.8461 57.5819 40.7011L44.9087 56.8766C44.2569 57.7317 43.2429 58.2151 42.193 58.2151H21.8795C20.8293 58.2151 19.8156 57.7317 19.1638 56.8766L6.4906 40.7011C5.83881 39.8461 5.58515 38.7305 5.80264 37.6521L10.3288 17.461C10.5822 16.3825 11.2702 15.4901 12.2116 15.0438L30.5338 6.04541C31.0045 5.85944 31.5473 5.74777 32.0542 5.74777ZM32.0542 4C31.2939 4 30.5336 4.18597 29.8092 4.52053L11.4874 13.5194C10.0389 14.2259 9.02519 15.5272 8.66301 17.1262L4.13688 37.3175C3.77492 38.9164 4.13688 40.5525 5.15085 41.8541L17.824 58.0293C18.8018 59.2935 20.2863 60 21.8433 60H42.1566C43.7136 60 45.1983 59.2935 46.1759 58.0293L58.8493 41.8539C59.863 40.5897 60.2252 38.9164 59.863 37.3173L55.3369 17.1262C54.9749 15.5272 53.961 14.2259 52.5127 13.5194L34.263 4.5203C33.5751 4.18597 32.8147 4 32.0542 4Z" fill="black"/>
<path d="M50.3923 36.0464C50.3561 36.0464 50.3561 36.0464 50.3923 36.0464H50.3561C50.32 36.0464 50.2839 36.0464 50.2839 36.0092C50.2116 36.0092 50.1394 35.972 50.0669 35.972C49.8138 35.9349 49.5968 35.8977 49.3798 35.8977C49.2712 35.8977 49.1628 35.8977 49.018 35.8603H48.9819C48.2225 35.7859 47.6077 35.7116 47.029 35.5255C46.7759 35.4137 46.7036 35.265 46.6311 35.1161C46.6311 35.0789 46.595 35.0789 46.595 35.0418L46.1249 34.8931C46.347 33.1426 46.2612 31.3653 45.8718 29.646C45.4769 27.9125 44.7916 26.2629 43.8466 24.7714L44.2083 24.4366V24.3622C44.2083 24.1761 44.2444 23.99 44.3889 23.8039C44.8229 23.3946 45.3655 23.0598 46.0165 22.6504C46.1249 22.576 46.2333 22.5389 46.3419 22.4643C46.5589 22.3528 46.7397 22.2412 46.9567 22.0923C46.9928 22.0551 47.0651 22.018 47.1376 21.9436C47.1737 21.9062 47.2098 21.9062 47.2098 21.869C47.7161 21.4225 47.8247 20.6783 47.463 20.1944C47.2821 19.9339 46.9567 19.7852 46.6311 19.7852C46.3421 19.7852 46.0887 19.8968 45.8356 20.0828L45.7634 20.1572C45.6911 20.1944 45.6548 20.2689 45.5825 20.3061C45.4016 20.4922 45.2569 20.6409 45.1124 20.827C45.0401 20.9014 44.9679 21.0131 44.8593 21.0875C44.3528 21.6458 43.8827 22.0923 43.4126 22.4271C43.3042 22.5015 43.1958 22.5389 43.0872 22.5389C43.0149 22.5389 42.9425 22.5389 42.8702 22.5015H42.7979L42.3637 22.7993C41.8936 22.2784 41.3874 21.8319 40.8811 21.3853C38.7012 19.632 36.0777 18.56 33.3227 18.2967L33.2866 17.8129L33.2143 17.7386C33.1057 17.6268 32.9612 17.5153 32.9248 17.2549C32.8887 16.6594 32.9612 15.9896 33.0335 15.2454V15.2082C33.0335 15.0965 33.0696 14.9478 33.1057 14.836C33.1418 14.613 33.178 14.3895 33.2143 14.129V13.7943C33.2143 13.1244 32.7078 12.5664 32.0932 12.5664C31.8037 12.5664 31.5145 12.7151 31.2975 12.9383C31.0807 13.1616 30.9721 13.4592 30.9721 13.7943V14.0918C30.9721 14.3523 31.0083 14.5756 31.0805 14.7988C31.1166 14.9106 31.1166 15.0221 31.1528 15.171V15.2082C31.225 15.9524 31.3336 16.6222 31.2614 17.2177C31.2252 17.4781 31.0805 17.5897 30.9721 17.7014L30.8999 17.7758L30.8635 18.2595C30.2125 18.3338 29.5616 18.4082 28.9106 18.5571C26.126 19.1898 23.6668 20.6411 21.7502 22.7247L21.3885 22.4643H21.3162C21.244 22.4643 21.1715 22.5015 21.0993 22.5015C20.9906 22.5015 20.8823 22.4643 20.7737 22.3899C20.3035 22.0551 19.8334 21.5712 19.3272 21.0131C19.2549 20.9388 19.1827 20.827 19.0741 20.7527C18.9293 20.5666 18.7846 20.4176 18.6037 20.2318C18.5676 20.1944 18.4953 20.1574 18.4231 20.0828C18.3869 20.0457 18.3508 20.0457 18.3508 20.0085C18.1268 19.818 17.8457 19.7128 17.5551 19.7106C17.2295 19.7106 16.9041 19.8596 16.7233 20.12C16.3615 20.6037 16.4701 21.3479 16.9764 21.7945C17.0125 21.7945 17.0125 21.8319 17.0486 21.8319C17.1209 21.869 17.1572 21.9434 17.2295 21.9806C17.4465 22.1293 17.6274 22.241 17.8444 22.3528C17.953 22.3899 18.0613 22.4643 18.17 22.5389C18.8207 22.948 19.3633 23.283 19.7973 23.6924C19.9782 23.8783 19.9782 24.0644 19.9782 24.2505V24.3248L20.3397 24.6599C20.2674 24.7714 20.1952 24.846 20.1588 24.9575C18.3506 27.8972 17.6635 31.3579 18.1336 34.7813L17.6635 34.93C17.6635 34.9674 17.6274 34.9674 17.6274 35.0044C17.5551 35.1533 17.4465 35.3022 17.2295 35.4137C16.6871 35.5998 16.0361 35.6744 15.2768 35.7488H15.2404C15.132 35.7488 14.9873 35.7488 14.8789 35.7859C14.6619 35.7859 14.4449 35.8231 14.1918 35.8603C14.1196 35.8603 14.0473 35.8977 13.9748 35.8977C13.9387 35.8977 13.9026 35.8977 13.8662 35.9349C13.2153 36.0836 12.8174 36.7162 12.926 37.3115C13.0346 37.8326 13.5047 38.1676 14.0832 38.1676C14.1918 38.1676 14.2641 38.1676 14.3727 38.1302C14.4088 38.1302 14.4449 38.1302 14.4449 38.093C14.5172 38.093 14.5895 38.0559 14.6617 38.0559C14.9151 37.9815 15.0959 37.9072 15.3129 37.7954C15.4213 37.7582 15.5297 37.6837 15.6383 37.6467H15.6744C16.3615 37.386 16.9764 37.1628 17.5551 37.0884H17.6274C17.8444 37.0884 17.9891 37.1999 18.0975 37.2745C18.1336 37.2745 18.1336 37.3117 18.1697 37.3117L18.6762 37.2373C19.5442 39.9907 21.2076 42.4468 23.4137 44.233C23.92 44.6421 24.4262 44.9771 24.9688 45.3122L24.7518 45.7957C24.7518 45.833 24.7879 45.833 24.7879 45.87C24.8602 46.0189 24.9324 46.205 24.8602 46.4655C24.6434 47.0238 24.3178 47.5818 23.9199 48.2145V48.2517C23.8477 48.3634 23.7754 48.4378 23.7032 48.5493C23.5584 48.7354 23.4498 48.9215 23.3051 49.1448C23.269 49.1819 23.2328 49.2563 23.1967 49.3309C23.1967 49.368 23.1606 49.4052 23.1606 49.4052C22.8713 50.0379 23.0883 50.7448 23.6307 51.0053C23.7752 51.0796 23.92 51.1171 24.0647 51.1171C24.4987 51.1171 24.9327 50.8192 25.1497 50.4098C25.1497 50.3727 25.1858 50.3355 25.1858 50.3355C25.2219 50.2611 25.258 50.1868 25.2942 50.1494C25.4028 49.8889 25.4389 49.7028 25.5112 49.4796L25.6198 49.1448C25.8729 48.4006 26.0538 47.8051 26.3791 47.2842C26.5237 47.0609 26.7047 47.0238 26.8492 46.9492C26.8854 46.9492 26.8854 46.9492 26.9215 46.912L27.1749 46.4283C28.7661 47.0609 30.502 47.3957 32.2377 47.3957C33.2866 47.3957 34.3715 47.2842 35.3842 47.0238C36.0215 46.8771 36.6495 46.6907 37.2647 46.4655L37.4815 46.8748C37.5178 46.8748 37.5178 46.8748 37.554 46.912C37.7348 46.9492 37.8793 47.0238 38.0241 47.247C38.3133 47.7679 38.5303 48.4006 38.7834 49.1076V49.1448L38.8921 49.4796C38.9643 49.7028 39.0004 49.9261 39.1088 50.1494C39.1452 50.2237 39.1813 50.2611 39.2174 50.3355C39.2174 50.3727 39.2538 50.4098 39.2538 50.4098C39.4706 50.8564 39.9045 51.1171 40.3385 51.1171C40.4833 51.1171 40.628 51.0796 40.7725 51.0053C41.0256 50.8566 41.2426 50.6331 41.3151 50.3355C41.3874 50.0379 41.3874 49.7028 41.2429 49.4052C41.2429 49.368 41.2065 49.368 41.2065 49.3309C41.1704 49.2565 41.1342 49.1822 41.0981 49.1448C40.9895 48.9215 40.845 48.7354 40.7003 48.5493C40.628 48.4378 40.5557 48.3634 40.4835 48.2519V48.2145C40.0854 47.5818 39.7237 47.0238 39.543 46.4655C39.4708 46.205 39.543 46.0563 39.5792 45.8702C39.5792 45.833 39.6153 45.8331 39.6153 45.7959L39.4344 45.3493C41.3512 44.1958 42.9786 42.5583 44.2083 40.549C44.8593 39.507 45.3655 38.3535 45.727 37.1999L46.161 37.2743C46.1973 37.2743 46.1973 37.2371 46.2333 37.2371C46.378 37.1628 46.4866 37.0512 46.7036 37.0512H46.7759C47.3546 37.1256 47.9692 37.3486 48.6565 37.6093H48.6927C48.8011 37.6465 48.9094 37.7208 49.018 37.758C49.235 37.8698 49.4159 37.9441 49.669 38.0187C49.7413 38.0187 49.8135 38.0559 49.886 38.0559C49.9221 38.0559 49.9583 38.0559 49.9944 38.093C50.103 38.1302 50.1753 38.1302 50.2839 38.1302C50.8262 38.1302 51.2964 37.7582 51.4411 37.2745C51.4411 36.828 51.0432 36.2323 50.3923 36.0464ZM33.6481 34.223L32.0569 35.0046L30.4657 34.223L30.068 32.4742L31.1528 31.0602H32.9248L34.0098 32.4742L33.6481 34.223ZM43.0872 30.3532C43.3677 31.5837 43.4532 32.8527 43.3403 34.1113L37.8071 32.4742C37.3008 32.3255 37.0116 31.8044 37.12 31.2835C37.1561 31.1346 37.2286 30.9857 37.337 30.8741L41.713 26.818C42.3276 27.86 42.7977 29.051 43.0872 30.3532ZM39.977 24.5855L35.2395 28.0461C34.8417 28.3066 34.2991 28.232 33.9737 27.8229C33.8653 27.7111 33.8292 27.5622 33.7928 27.4135L33.4674 21.3479C35.9304 21.6397 38.2248 22.7809 39.977 24.5855ZM29.4893 21.5338C29.8872 21.4594 30.2487 21.3851 30.6465 21.3107L30.3211 27.2643C30.285 27.7852 29.8872 28.2318 29.3446 28.2318C29.2001 28.2318 29.0192 28.1946 28.9106 28.1203L24.1008 24.5855C25.5836 23.0598 27.428 22.0175 29.4893 21.5338ZM22.3649 26.8178L26.6684 30.7622C27.0662 31.0972 27.1024 31.7296 26.777 32.139C26.6684 32.2877 26.5239 32.3994 26.343 32.4368L20.7375 34.1113C20.5205 31.5809 21.0629 29.0134 22.3649 26.8178ZM21.3883 36.9021L27.1387 35.8972C27.6088 35.8601 28.0428 36.1951 28.1512 36.6788C28.1873 36.9019 28.1873 37.0882 28.1151 37.2743L25.909 42.7442C23.8838 41.4045 22.2563 39.3579 21.3883 36.9021ZM34.5885 44.3071C33.7567 44.4932 32.9248 44.6047 32.0569 44.6047C30.7913 44.6047 29.5616 44.3817 28.4046 44.0095L31.2614 38.6883C31.5506 38.3533 32.0207 38.2046 32.4186 38.4278C32.5875 38.5343 32.7348 38.6732 32.8526 38.837L35.6372 44.0095C35.3118 44.121 34.9503 44.1956 34.5885 44.3071ZM41.6405 39.1348C40.7364 40.6232 39.5428 41.8139 38.1688 42.7442L35.8905 37.1251C35.7819 36.6788 35.9628 36.1951 36.3967 35.9716C36.5413 35.8972 36.7221 35.8601 36.903 35.8601L42.6893 36.8649C42.4723 37.6834 42.1106 38.4278 41.6405 39.1348Z" fill="black"/>
</g>
</svg>
