<svg width="64" height="64" viewBox="0 0 64 64" fill="none" xmlns="http://www.w3.org/2000/svg">
<g clip-path="url(#clip0_737_89319)">
<mask id="mask0_737_89319" style="mask-type:luminance" maskUnits="userSpaceOnUse" x="0" y="0" width="64" height="64">
<path d="M64 0H0V64H64V0Z" fill="white"/>
</mask>
<g mask="url(#mask0_737_89319)">
<path d="M58.8272 49.098C55.3611 49.0116 52.6747 49.3585 50.4216 50.3115C49.7717 50.5712 48.7318 50.5716 48.645 51.3946C48.9918 51.7415 49.0351 52.3046 49.3384 52.7812C49.8587 53.6474 50.7681 54.8175 51.5915 55.4243C52.5013 56.1174 53.4113 56.8105 54.3643 57.4172C56.0541 58.4572 57.9606 59.0635 59.607 60.1035C60.5605 60.7097 61.5133 61.4901 62.4665 62.14C62.9433 62.4863 63.2464 63.0497 63.8531 63.2663V63.1365C63.5497 62.7464 63.463 62.1832 63.1599 61.7499C62.727 61.3166 62.2933 60.9267 61.86 60.4934C60.6035 58.8037 59.0438 57.3305 57.354 56.1174C55.9678 55.1642 52.9346 53.8643 52.3713 52.2612L52.2847 52.1748C53.2379 52.088 54.3643 51.7415 55.2743 51.4813C56.7476 51.0913 58.0907 51.178 59.607 50.7882C60.3002 50.6148 60.9936 50.3981 61.6866 50.1815V49.7917C60.9071 49.0116 60.3436 47.9719 59.5204 47.2353C57.3108 45.3285 54.8842 43.4657 52.3713 41.906C51.028 41.0395 49.2949 40.476 47.8652 39.7397C47.3455 39.4793 46.4786 39.3497 46.1757 38.9164C45.3955 37.9631 44.9622 36.7068 44.399 35.5801C43.1429 33.1969 41.9294 30.5543 40.8461 28.0414C40.0665 26.3515 39.5898 24.6616 38.6365 23.102C34.1738 15.7363 29.3211 11.2736 21.8689 6.89742C20.2657 5.98761 18.3594 5.59754 16.3229 5.12114C15.2402 5.07758 14.1567 4.99115 13.0735 4.9477C12.3803 4.6444 11.6869 3.82125 11.0802 3.43117C8.61105 1.87131 2.24161 -1.50795 0.42177 2.95477C-0.748128 5.77108 2.15495 8.54383 3.1513 9.97382C3.88825 10.9703 4.84127 12.0967 5.36123 13.2234C5.66453 13.9595 5.75097 14.7398 6.05439 15.5197C6.74777 17.4256 7.39738 19.5491 8.30741 21.3256C8.78415 22.2354 9.30388 23.1886 9.9106 24.0117C10.2571 24.4882 10.8635 24.7051 10.9939 25.4849C10.3874 26.3515 10.3439 27.6514 9.99703 28.7345C8.4374 33.6305 9.04401 39.6962 11.2536 43.2923C11.9468 44.3752 13.5934 46.7588 15.803 45.8488C17.7528 45.0689 17.3195 42.5992 17.8826 40.4328C18.0129 39.9126 17.9261 39.5662 18.1861 39.2198V39.3064C18.7927 40.5195 19.3991 41.6895 19.9623 42.9026C21.3056 45.0254 23.6452 47.2353 25.5949 48.7085C26.6352 49.4881 27.4582 50.8314 28.758 51.3082V51.178H28.6713C28.4111 50.7879 28.0214 50.6148 27.6748 50.3114C26.8949 49.5317 26.0281 48.5783 25.4217 47.7118C23.6022 45.2853 21.9988 42.5992 20.569 39.8262C19.8759 38.4831 19.2691 37.0099 18.7061 35.6669C18.4459 35.1466 18.4459 34.367 18.0126 34.1071C17.3626 35.0602 16.4097 35.8835 15.933 37.0533C15.1102 38.9164 15.0232 41.2127 14.7199 43.5956C14.5467 43.6392 14.6331 43.5956 14.5464 43.6824C13.1601 43.3355 12.6835 41.9061 12.1633 40.6927C10.8635 37.6166 10.647 32.6771 11.7736 29.1246C12.077 28.2145 13.3768 25.355 12.8568 24.4884C12.5969 23.6652 11.7301 23.1886 11.2536 22.5387C10.6904 21.7154 10.0837 20.6758 9.69395 19.7657C8.65393 17.3395 8.13398 14.6531 7.00764 12.2266C6.48768 11.0999 5.57787 9.93038 4.84116 8.89069C4.01824 7.7208 3.1082 6.89742 2.45826 5.51088C2.24184 5.03436 1.9383 4.25454 2.28483 3.73459C2.37149 3.38807 2.54469 3.25808 2.89156 3.17142C3.45461 2.69457 5.05792 3.30129 5.62109 3.56116C7.22417 4.21076 8.56727 4.81772 9.9106 5.72764C10.517 6.16082 11.167 6.98408 11.9468 7.20073H12.8568C14.2434 7.50381 15.803 7.2875 17.1029 7.67724C19.3993 8.41362 21.4787 9.49708 23.3421 10.667C29.0181 14.2631 33.6972 19.3759 36.8602 25.4849C37.3802 26.4812 37.5966 27.3915 38.0732 28.4311C38.9834 30.5543 40.1097 32.7207 41.0194 34.8003C41.9294 36.8364 42.7958 38.9164 44.0956 40.6062C44.7459 41.5157 47.3452 41.9925 48.5151 42.4693C49.3817 42.8591 50.7249 43.2059 51.5047 43.6824C52.9777 44.5919 54.4509 45.6322 55.8375 46.6286C56.531 47.1483 58.697 48.2318 58.8272 49.098Z" fill="black"/>
<path d="M14.6338 11.4463C13.8971 11.4463 13.3773 11.5333 12.8574 11.6633V11.75H12.9442C13.2909 12.4431 13.8971 12.9199 14.3304 13.5263C14.6772 14.2194 14.9803 14.9128 15.3272 15.6062L15.4136 15.5195C16.0206 15.086 16.3236 14.3928 16.3236 13.3532C16.0634 13.0499 16.0202 12.7464 15.8036 12.4431C15.5437 12.0096 14.9804 11.7932 14.6338 11.4463Z" fill="black"/>
</g>
</g>
<defs>
<clipPath id="clip0_737_89319">
<rect width="64" height="64" fill="white"/>
</clipPath>
</defs>
</svg>
