<?xml version="1.0" encoding="UTF-8"?>
<svg version="1.1" xmlns="http://www.w3.org/2000/svg" width="4391" height="1419">
<path d="M0 0 C2.96677853 0.00847859 5.93160542 -0.02027769 8.89819336 -0.05200195 C23.54313798 -0.10754352 38.10429816 0.99019277 51.17749023 8.25854492 C51.83338135 8.60691406 52.48927246 8.9552832 53.16503906 9.31420898 C55.05885314 10.33407995 56.93209021 11.38398976 58.80249023 12.44604492 C59.78862305 12.99131836 60.77475586 13.5365918 61.79077148 14.09838867 C69.19516076 18.48101561 75.26722233 24.14385332 81.41186523 30.10229492 C82.54855912 31.20067329 83.70418524 32.2794297 84.86499023 33.35229492 C101.64771129 49.20264259 112.67142443 71.62284528 113.98732427 94.68546914 C114.05733992 98.21516439 114.06753622 101.73987821 114.05417252 105.27024651 C114.05626335 106.63267604 114.05922922 107.99510445 114.06298125 109.35753042 C114.07072996 113.0846581 114.06613023 116.8116814 114.05942534 120.53880728 C114.05433426 124.60034895 114.06087883 128.66187509 114.06591201 132.72341454 C114.07312555 139.83681636 114.07292228 146.9501878 114.06781769 154.063591 C114.06024698 164.64250335 114.0641234 175.22139011 114.0702343 185.80030228 C114.08076534 204.70027632 114.0798527 223.60023685 114.07407648 242.50021218 C114.06904317 259.05124077 114.06773295 275.60226441 114.07012177 292.15329361 C114.07035092 293.80082374 114.07035092 293.80082374 114.07058471 295.4816373 C114.07120741 299.94053441 114.07184421 304.39943152 114.07250423 308.85832862 C114.07862345 350.69716491 114.07307477 392.53599261 114.06231044 434.37482757 C114.05283105 471.50127313 114.05365833 508.62770496 114.06323242 545.75415039 C114.07395921 587.48983633 114.07817755 629.22551466 114.07200789 670.96120179 C114.0713665 675.41750534 114.07074082 679.8738089 114.07012177 684.33011246 C114.06996361 685.42731955 114.06980546 686.52452663 114.06964251 687.65498242 C114.0673736 704.1783143 114.07001707 720.70164066 114.07508087 737.22497177 C114.08081795 756.03875895 114.07933094 774.85253052 114.06851938 793.66631578 C114.06267688 804.17801076 114.06221948 814.68967188 114.06981173 825.20136594 C114.07433552 832.2460351 114.07143585 839.29067742 114.06280219 846.33534264 C114.05809876 850.33413616 114.05630217 854.33286303 114.06361416 858.33165418 C114.10748692 884.24427118 113.25582897 910.06363393 109.61499023 935.75854492 C109.45833893 936.89289978 109.45833893 936.89289978 109.29852295 938.0501709 C96.04785124 1033.29845089 53.36016065 1123.87712174 -14.01000977 1204.32104492 C-14.44684082 1204.83723389 -14.88367187 1205.35342285 -15.33374023 1205.88525391 C-24.74135387 1216.87187223 -34.81362313 1227.22704272 -45.0534668 1237.43237305 C-46.96333971 1239.33682997 -48.86773125 1241.24665312 -50.77172852 1243.15698242 C-56.74325893 1249.13210152 -62.72064301 1255.01335032 -69.19750977 1260.44604492 C-70.3043298 1261.40672987 -71.40982554 1262.36894295 -72.51391602 1263.33276367 C-141.40380858 1322.92173253 -223.60077961 1366.62269638 -348.82250977 1393.63354492 C-349.91635986 1393.78855469 -351.01020996 1393.94356445 -352.13720703 1394.10327148 C-355.81943368 1394.59606018 -359.50542233 1395.0354354 -363.19750977 1395.44604492 C-363.97341461 1395.53431549 -364.74931946 1395.62258606 -365.54873657 1395.71353149 C-381.80913749 1397.50662741 -398.03280687 1397.79053735 -414.37304688 1397.76171875 C-417.19840523 1397.75711179 -420.02333045 1397.76393955 -422.84863281 1397.78222656 C-514.41719348 1398.3683563 -604.29479826 1372.70766704 -683.19750977 1326.44604492 C-684.06746582 1325.94073242 -684.93742187 1325.43541992 -685.83374023 1324.91479492 C-711.50801047 1309.97986628 -735.52028367 1292.60707698 -758.19750977 1273.44604492 C-758.84655273 1272.90141602 -759.4955957 1272.35678711 -760.16430664 1271.7956543 C-766.49127839 1266.48356735 -772.67622375 1261.15261306 -778.43188477 1255.21557617 C-780.16120594 1253.48242906 -781.95448644 1251.90258568 -783.82250977 1250.32104492 C-792.25382763 1243.05842458 -800.24700966 1234.98155386 -807.43579102 1226.48901367 C-809.28829884 1224.3407618 -811.20602801 1222.25981635 -813.13623047 1220.18139648 C-818.74873424 1214.13290525 -824.05807497 1207.90530055 -829.19750977 1201.44604492 C-829.60936523 1200.93380371 -830.0212207 1200.4215625 -830.44555664 1199.89379883 C-853.81978507 1170.81661016 -873.81368211 1139.42594127 -891.19750977 1106.44604492 C-891.93203369 1105.05506592 -891.93203369 1105.05506592 -892.68139648 1103.63598633 C-933.17521164 1026.34660422 -950.5502667 940.84181989 -925.41625977 697.22729492 C-905.64559107 635.69467026 -872.364113 578.69921036 -830.81420898 529.36694336 C-829.3005762 527.56850441 -827.79652892 525.76254107 -826.29516602 523.95385742 C-820.76515967 517.31941916 -815.02941514 510.91121531 -809.12719727 504.60620117 C-807.1780471 502.51985042 -805.27028332 500.40570291 -803.39282227 498.25463867 C-802.52399414 497.26592773 -801.65516602 496.2772168 -800.76000977 495.25854492 C-799.99817383 494.37811523 -799.23633789 493.49768555 -798.45141602 492.59057617 C-796.07150889 490.32615848 -794.22970093 489.5910003 -791.19750977 488.44604492 C-789.29544654 486.83120829 -789.29544654 486.83120829 -787.57250977 484.88354492 C-783.6354985 480.78372492 -779.39338901 477.26825273 -774.96313477 473.71557617 C-772.41008656 471.62049 -769.98985032 469.44482942 -767.57250977 467.19604492 C-760.5111582 460.7796672 -752.83271843 455.15294542 -745.19750977 449.44604492 C-744.01729248 448.56045898 -744.01729248 448.56045898 -742.81323242 447.65698242 C-732.48693108 439.92010633 -722.07307406 432.39345897 -711.19750977 425.44604492 C-710.4434082 424.96345215 -709.68930664 424.48085938 -708.91235352 423.98364258 C-639.5229601 379.80777073 -563.23252071 351.9642954 -457.19750977 338.44604492 C-455.99650635 338.36064453 -454.79550293 338.27524414 -453.55810547 338.18725586 C-363.73672433 332.13442156 -267.31469294 348.8085769 -108.51876831 429.56178284 C-107.70926161 430.10194818 -106.89975491 430.64211351 -106.0657177 431.1986475 C-105.44920908 431.61028865 -104.83270046 432.0219298 -104.19750977 432.44604492 C-104.19864893 431.75249393 -104.19978809 431.05894294 -104.20096177 430.34437525 C-104.26818391 389.18389247 -104.31961379 348.02341608 -104.35070575 306.86288939 C-104.3544576 301.91404531 -104.3583406 296.96520134 -104.36230469 292.01635742 C-104.36309162 291.03118552 -104.36387855 290.04601362 -104.36468933 289.03098802 C-104.37772182 273.1063764 -104.40136372 257.18179747 -104.42896815 241.2572052 C-104.45708248 224.90132084 -104.47369874 208.54545352 -104.47977525 192.18954599 C-104.48387922 182.1076405 -104.49681286 172.02582743 -104.52125917 161.9439504 C-104.53719086 155.01824641 -104.54189341 148.09258978 -104.5380139 141.16686882 C-104.53610385 137.17885087 -104.53890603 133.19099374 -104.55512619 129.20300484 C-104.70438367 90.58787251 -104.70438367 90.58787251 -98.07250977 73.82104492 C-97.77393066 73.04237061 -97.47535156 72.26369629 -97.16772461 71.46142578 C-90.33568164 54.26948953 -79.8104544 39.8810623 -67.19750977 26.44604492 C-66.6599707 25.83245117 -66.12243164 25.21885742 -65.56860352 24.58666992 C-48.6897468 6.14260595 -23.94569149 -0.10408609 0 0 Z M-467.19750977 556.44604492 C-468.33849121 556.65003906 -469.47947266 556.8540332 -470.6550293 557.06420898 C-524.82001005 566.96215865 -575.63503247 590.41843755 -618.19750977 625.44604492 C-618.77791016 625.92203125 -619.35831055 626.39801758 -619.95629883 626.88842773 C-634.98090548 639.30865934 -649.27892632 652.99437295 -661.19750977 668.44604492 C-662.10658562 669.54675465 -663.01962881 670.64419513 -663.93579102 671.73901367 C-698.62633377 713.48632364 -720.97645398 766.20635287 -730.19750977 819.44604492 C-730.44525146 820.86071045 -730.44525146 820.86071045 -730.69799805 822.30395508 C-735.72739802 852.65198906 -735.43757829 886.15601631 -730.19750977 916.44604492 C-730.02058594 917.48519043 -729.84366211 918.52433594 -729.66137695 919.5949707 C-727.11507902 934.14053275 -723.70994149 948.38572395 -719.19750977 962.44604492 C-718.92632324 963.29634277 -718.65513672 964.14664062 -718.37573242 965.02270508 C-694.24928554 1039.12834659 -640.92115157 1101.29801043 -574.19750977 1140.44604492 C-573.49078125 1140.86595703 -572.78405273 1141.28586914 -572.0559082 1141.71850586 C-558.95737769 1149.46156889 -545.24320583 1155.62564322 -531.19750977 1161.44604492 C-530.37702148 1161.78764648 -529.5565332 1162.12924805 -528.71118164 1162.48120117 C-506.65017754 1171.51732796 -482.76968087 1177.19318281 -459.19750977 1180.44604492 C-458.40876465 1180.56173828 -457.62001953 1180.67743164 -456.80737305 1180.79663086 C-378.58346075 1191.87054745 -297.19034666 1167.5101947 -234.41235352 1120.66870117 C-223.19381146 1112.15048733 -212.32866704 1103.24371935 -202.19750977 1093.44604492 C-201.37911621 1092.65488281 -200.56072266 1091.8637207 -199.7175293 1091.04858398 C-188.77349847 1080.41172013 -178.23197158 1069.78955152 -169.19750977 1057.44604492 C-167.55201657 1055.38327355 -165.90617799 1053.32077764 -164.26000977 1051.25854492 C-132.61103407 1010.46793282 -113.55641648 960.19490538 -106.19750977 909.44604492 C-106.07891602 908.64859863 -105.96032227 907.85115234 -105.83813477 907.02954102 C-102.00419851 879.90101882 -102.59436966 850.39518375 -107.19750977 823.44604492 C-107.38023437 822.36484375 -107.56295898 821.28364258 -107.7512207 820.16967773 C-112.77986295 791.65752389 -122.25816709 764.30617258 -135.19750977 738.44604492 C-135.63530762 737.555625 -136.07310547 736.66520508 -136.52416992 735.74780273 C-146.64969895 715.24163686 -158.90411931 696.28224156 -173.19750977 678.44604492 C-173.99801758 677.4328418 -174.79852539 676.41963867 -175.62329102 675.37573242 C-180.743069 668.991924 -186.21392357 662.9614004 -191.78588867 656.9753418 C-193.20173757 655.44146468 -194.5984381 653.89216409 -195.99047852 652.33666992 C-201.72138089 645.95129708 -207.73171073 640.09325722 -214.19750977 634.44604492 C-214.94000977 633.75381836 -215.68250977 633.0615918 -216.44750977 632.34838867 C-256.87289351 594.72273589 -310.3392273 568.35178597 -364.32250977 557.69604492 C-365.82177002 557.39778809 -365.82177002 557.39778809 -367.35131836 557.09350586 C-384.45478427 553.89192595 -401.45497629 553.06661939 -418.82250977 553.13354492 C-419.83352753 553.13570007 -420.84454529 553.13785522 -421.88619995 553.14007568 C-437.19285144 553.19234208 -452.10591648 553.67608456 -467.19750977 556.44604492 Z " fill="#787878" transform="translate(2045.197509765625,-0.446044921875)"/>
<path d="M0 0 C0.81769867 -0.00067474 1.63539734 -0.00134949 2.47787476 -0.00204468 C88.0277143 0.10834221 171.65903832 24.63236477 325.375 121.25 C325.95620605 121.73210937 326.53741211 122.21421875 327.13623047 122.7109375 C334.12082328 128.50840978 340.90841411 134.48269442 347.5625 140.65625 C350.03228336 142.9339391 352.5385139 145.15798518 355.0625 147.375 C359.8818192 151.70143428 364.47604843 156.2423107 369.0625 160.8125 C369.77559326 161.52100098 370.48868652 162.22950195 371.22338867 162.95947266 C375.24387621 166.99164087 379.08714411 171.12218091 382.80493164 175.43481445 C384.90165822 177.85887946 387.07529144 180.20839629 389.25 182.5625 C394.17013443 187.96500055 398.81757746 193.53986254 403.375 199.25 C403.9949585 200.02053711 403.9949585 200.02053711 404.62744141 200.80664062 C460.81206898 270.70462785 500.79239429 354.61810821 520.38327026 592.73791504 C510.24919642 685.12695752 473.72866891 773.07526004 401.79003906 868.53076172 C400.52997335 870.06171112 399.29080531 871.60980647 398.0546875 873.16015625 C392.10744684 880.61066623 385.62499009 887.50047194 379.08544922 894.42626953 C376.54776394 897.13202304 374.05645833 899.87902343 371.5625 902.625 C365.23822737 909.53347963 358.7669511 916.16237188 351.6484375 922.25390625 C349.34921813 924.27263666 347.12083982 926.35783949 344.89404297 928.45581055 C338.27961979 934.66849641 331.37082377 940.31693784 324.1796875 945.84375 C322.33879351 947.27821285 320.52600845 948.74218139 318.71875 950.21875 C309.9171746 957.4065291 300.83816188 963.96331396 291.375 970.25 C290.63717285 970.74580566 289.8993457 971.24161133 289.13916016 971.75244141 C274.94618447 981.27750509 260.27433816 989.88139574 245.375 998.25 C244.62250977 998.67732422 243.87001953 999.10464844 243.09472656 999.54492188 C174.10930826 1038.54990606 90.69068939 1060.18191875 11.58203125 1060.453125 C10.19499174 1060.46014617 8.80795256 1060.467233 7.4209137 1060.47438049 C3.00977111 1060.49379248 -1.40131901 1060.49881476 -5.8125 1060.5 C-6.93932819 1060.50066278 -6.93932819 1060.50066278 -8.08892059 1060.50133896 C-30.73128993 1060.50832592 -53.14375667 1060.23179017 -75.625 1057.25 C-76.98173897 1057.07641092 -78.33851063 1056.9030772 -79.6953125 1056.72998047 C-164.35351509 1045.7662578 -248.43005807 1015.53751377 -321.625 962.25 C-322.65657227 961.49227295 -322.65657227 961.49227295 -323.70898438 960.71923828 C-332.21233633 954.46320077 -340.53720403 948.03859864 -348.625 941.25 C-349.66005739 940.39050593 -350.69521807 939.53113624 -351.73046875 938.671875 C-364.23682484 928.24120344 -375.99112865 917.07068107 -387.50146484 905.55883789 C-389.38230318 903.68020538 -391.27105188 901.80976894 -393.16015625 899.93945312 C-399.40099784 893.72678689 -405.3397561 887.47882488 -410.79101562 880.55151367 C-412.56984765 878.31921209 -414.43508402 876.21766315 -416.375 874.125 C-439.81816478 847.98935293 -458.6570321 817.17171585 -475.41943359 786.45263672 C-476.53643006 784.4118222 -477.66751055 782.37945983 -478.80078125 780.34765625 C-511.78686893 720.46498768 -529.47643395 652.36599827 -535.8125 584.625 C-535.88428467 583.85897461 -535.95606934 583.09294922 -536.0300293 582.30371094 C-537.4211204 566.04438054 -537.83240911 549.74933048 -537.8125 533.4375 C-537.81159363 532.04377167 -537.81159363 532.04377167 -537.81066895 530.62188721 C-537.6865235 459.63946058 -524.66997099 388.26001646 -495.625 323.25 C-495.15980957 322.20295898 -494.69461914 321.15591797 -494.21533203 320.07714844 C-474.76380242 276.52079981 -450.32651912 235.83857557 -419.625 199.25 C-419.11050293 198.63640625 -418.59600586 198.0228125 -418.06591797 197.390625 C-416.54956 195.58889721 -415.02689597 193.79280336 -413.5 192 C-413.07001709 191.49436523 -412.64003418 190.98873047 -412.19702148 190.46777344 C-403.45081793 180.30053259 -394.19527216 170.65549899 -384.69897461 161.19360352 C-382.92508997 159.42512781 -381.15668223 157.65129956 -379.38867188 155.87695312 C-373.63631771 150.12092969 -367.84888419 144.50065305 -361.625 139.25 C-360.54136034 138.30131324 -359.45928322 137.3508382 -358.37890625 136.3984375 C-327.41168414 109.38642531 -292.72659991 86.74398485 -256.625 67.25 C-255.78195312 66.79157715 -254.93890625 66.3331543 -254.0703125 65.86083984 C-183.92696871 27.87081402 -107.21462915 8.03529313 0 0 Z M-231.5 310.875 C-231.98682251 311.35637421 -232.47364502 311.83774841 -232.97521973 312.33370972 C-239.65374035 318.95646777 -245.80349234 325.85914226 -251.625 333.25 C-252.18880371 333.95447266 -252.75260742 334.65894531 -253.33349609 335.38476562 C-285.52205825 375.79963012 -308.17779239 423.66891906 -317.4375 474.5625 C-317.6324707 475.63338867 -317.82744141 476.70427734 -318.02832031 477.80761719 C-321.07073904 495.62749831 -322.00420383 513.32201836 -321.9375 531.375 C-321.93567719 532.40392365 -321.93385437 533.43284729 -321.93197632 534.49295044 C-321.88505241 550.2592313 -321.38124853 565.68862417 -318.625 581.25 C-318.45339355 582.23790527 -318.28178711 583.22581055 -318.10498047 584.24365234 C-308.41369441 638.32951598 -284.68077506 688.31739177 -250.625 731.25 C-249.92117188 732.14847656 -249.21734375 733.04695313 -248.4921875 733.97265625 C-241.97540459 742.13667026 -234.85037533 749.71600312 -227.625 757.25 C-227.08907227 757.80929199 -226.55314453 758.36858398 -226.00097656 758.94482422 C-219.278168 765.9187358 -212.2347832 772.24438717 -204.625 778.25 C-203.45798275 779.20501527 -202.29270997 780.16216501 -201.12890625 781.12109375 C-192.64127329 788.079947 -183.90464971 794.39111288 -174.625 800.25 C-174.04878906 800.61657715 -173.47257812 800.9831543 -172.87890625 801.36083984 C-132.12800502 827.10737013 -87.3641826 842.43786197 -39.625 848.25 C-38.79718018 848.3545752 -37.96936035 848.45915039 -37.11645508 848.56689453 C-27.47450594 849.62155642 -17.74991601 849.49386148 -8.0625 849.5 C-7.1054718 849.50067474 -6.1484436 849.50134949 -5.16241455 849.50204468 C10.21617372 849.48485705 25.18351454 848.83830994 40.375 846.25 C41.91414063 845.99259033 41.91414063 845.99259033 43.484375 845.72998047 C113.76154883 833.62404489 179.40602734 797.01052883 226.375 743.25 C226.81086426 742.75886719 227.24672852 742.26773438 227.69580078 741.76171875 C280.67952499 681.95945475 311.90538876 599.88360503 307.17285156 519.83056641 C302.45603075 459.48195902 282.08748496 398.73932138 245.375 350.25 C244.56886678 349.16807576 243.76287827 348.08604368 242.95703125 347.00390625 C229.52714483 329.12153102 214.43861691 311.73233728 197.375 297.25 C196.44171875 296.42886719 195.5084375 295.60773438 194.546875 294.76171875 C148.0111698 254.10177161 90.8089005 231.30872021 30.375 221.25 C29.3128125 221.07065918 28.250625 220.89131836 27.15625 220.70654297 C-63.82670962 205.9481924 -161.92644782 242.41773364 -231.5 310.875 Z " fill="#787878" transform="translate(2756.625,358.75)"/>
<path d="M0 0 C1.04285156 0.48227051 2.08570313 0.96454102 3.16015625 1.46142578 C63.30587775 29.42180644 117.27674931 67.9762942 164.05639648 114.92602539 C165.82487219 116.69991003 167.59870044 118.46831777 169.37304688 120.23632812 C175.12907031 125.98868229 180.74934695 131.77611581 186 138 C186.94868676 139.08363966 187.8991618 140.16571678 188.8515625 141.24609375 C196.65365899 150.19080907 203.89047435 159.49949751 211 169 C211.58072266 169.77037598 212.16144531 170.54075195 212.75976562 171.33447266 C220.99419535 182.26646556 228.80480168 193.35630836 236 205 C236.56299805 205.90959473 237.12599609 206.81918945 237.70605469 207.75634766 C280.64145796 277.46581621 308.10078281 352.48616186 317 434 C317.12004395 435.08249023 317.24008789 436.16498047 317.36376953 437.28027344 C327.824351 536.83507711 306.66052594 637.01934847 262 726 C261.53851562 726.92022949 261.07703125 727.84045898 260.6015625 728.78857422 C243.92004513 761.80407734 222.91631336 793.76605131 199 822 C198.10765282 823.06605475 197.21574952 824.13248115 196.32421875 825.19921875 C191.42005225 831.04993799 186.4434532 836.82039895 181.30053711 842.46386719 C179.86165426 844.05010459 178.43033596 845.64327506 177.01049805 847.24658203 C171.51942662 853.43680089 165.79501906 859.36032183 159.93383789 865.1965332 C158.43193075 866.69304925 156.93548938 868.194883 155.43945312 869.69726562 C150.13155662 875.00920966 144.72084515 880.13127699 139 885 C137.79646153 886.05664289 136.59462216 887.11522439 135.39453125 888.17578125 C128.07474923 894.60130498 120.65771263 900.79979067 112.84619141 906.62207031 C111.53025162 907.6042396 110.2177938 908.59108137 108.90771484 909.58105469 C32.77257812 967.10980635 -58.0190566 1003.4158928 -153 1013 C-153.84793121 1013.08720306 -154.69586243 1013.17440613 -155.56948853 1013.26425171 C-173.29166347 1015.03240515 -190.95519763 1015.36308967 -208.74634933 1015.31785583 C-210.97007161 1015.31242039 -213.19378326 1015.31004985 -215.41751099 1015.3079834 C-236.74944753 1015.27708612 -257.82465007 1014.80680476 -279 1012 C-280.18158691 1011.85546387 -281.36317383 1011.71092773 -282.58056641 1011.56201172 C-345.77752894 1003.81152181 -405.26502366 984.47932971 -462 956 C-463.28318115 955.35635498 -463.28318115 955.35635498 -464.59228516 954.69970703 C-494.47351181 939.58481296 -523.46869518 920.67894817 -549 899 C-550.06721955 898.10618689 -551.13495443 897.21298885 -552.203125 896.3203125 C-558.0515133 891.41906616 -563.8187798 886.44441513 -569.45996094 881.30444336 C-571.05970362 879.85308127 -572.66608038 878.40896591 -574.28173828 876.9753418 C-580.63134238 871.33454605 -586.69582688 865.4553186 -592.6875 859.4375 C-593.58533203 858.54353516 -594.48316406 857.64957031 -595.40820312 856.72851562 C-600.48241493 851.64686907 -605.33893799 846.46100395 -610 841 C-611.04517387 839.80840159 -612.0920268 838.61827364 -613.140625 837.4296875 C-620.38523776 829.1665708 -627.35515004 820.75282585 -634 812 C-634.53737793 811.29391602 -635.07475586 810.58783203 -635.62841797 809.86035156 C-652.3670113 787.76827374 -666.78545438 764.33474668 -680 740 C-680.68618408 738.74848145 -680.68618408 738.74848145 -681.38623047 737.47167969 C-719.37803667 667.90480901 -740.98584292 586.80322243 -741.203125 507.515625 C-741.20595238 506.79862175 -741.20877975 506.0816185 -741.21169281 505.34288788 C-741.22656935 501.53002072 -741.23586501 497.71719009 -741.24023438 493.90429688 C-741.24456723 490.83711512 -741.25827115 487.77022292 -741.28125 484.703125 C-741.48957674 456.26852283 -739.98118945 428.09428256 -735.3125 400 C-735.12550034 398.84553879 -735.12550034 398.84553879 -734.9347229 397.66775513 C-730.51055314 370.50525858 -723.73853398 344.09359799 -715 318 C-714.65388672 316.95650391 -714.30777344 315.91300781 -713.95117188 314.83789062 C-697.51751261 265.78638013 -673.08479748 217.61673338 -641.33886719 176.73583984 C-639.29143536 174.08134672 -637.30675444 171.38215868 -635.3125 168.6875 C-631.03283225 162.98894599 -626.57723017 157.46171909 -622 152 C-621.56349121 151.47712402 -621.12698242 150.95424805 -620.67724609 150.41552734 C-609.74208989 137.35119787 -598.07885811 125.00937313 -586.0625 112.9375 C-585.37712158 112.24744873 -584.69174316 111.55739746 -583.9855957 110.84643555 C-580.04553098 106.91879552 -575.99636479 103.17699198 -571.78393555 99.54321289 C-569.60451843 97.65788436 -567.49179391 95.70514783 -565.375 93.75 C-560.33446174 89.20197235 -555.05121534 85.03307905 -549.6875 80.87890625 C-547.24218693 78.98223768 -544.82848895 77.05452725 -542.4375 75.08984375 C-533.39343228 67.67476313 -523.96949812 60.99733929 -514.24560547 54.50341797 C-512.20905187 53.13995884 -510.18274774 51.76295268 -508.16015625 50.37890625 C-437.09416878 1.97316691 -354.21471495 -28.75582465 0 0 Z M-444.84765625 274.96875 C-446.61056814 276.94390435 -448.30542061 278.96581867 -450 281 C-450.41733398 281.48227051 -450.83466797 281.96454102 -451.26464844 282.46142578 C-466.77905853 300.40096623 -480.278507 320.85024435 -491 342 C-491.50337891 342.98371582 -492.00675781 343.96743164 -492.52539062 344.98095703 C-508.836177 377.09463163 -519.37286596 410.24980923 -524 446 C-524.11714355 446.86206055 -524.23428711 447.72412109 -524.35498047 448.61230469 C-534.11969091 523.0446443 -514.20348178 602.63141793 -471 664 C-470.4121875 664.84256348 -470.4121875 664.84256348 -469.8125 665.70214844 C-464.46894192 673.3542906 -458.95806963 680.81037408 -453 688 C-452.21496094 688.9590625 -451.42992187 689.918125 -450.62109375 690.90625 C-440.01273184 703.74402232 -428.70742235 716.21182268 -416 727 C-415.05511719 727.83273437 -414.11023438 728.66546875 -413.13671875 729.5234375 C-366.14623497 770.62985658 -305.8404999 796.03079561 -244 803 C-243.23623047 803.0942627 -242.47246094 803.18852539 -241.68554688 803.28564453 C-166.63056035 811.48653145 -88.18381485 789.3052898 -28 744 C-27.163479 743.37762451 -27.163479 743.37762451 -26.31005859 742.74267578 C-19.78115005 737.87825552 -13.49563181 732.83348363 -7.51171875 727.30078125 C-5.43663845 725.39996897 -3.33237451 723.55384716 -1.203125 721.71484375 C3.00076347 718.04496937 6.99474695 714.19756011 10.9375 710.25 C11.63697754 709.5497168 12.33645508 708.84943359 13.05712891 708.12792969 C17.64913134 703.48155248 21.91589855 698.74776212 25.94921875 693.60546875 C28.11746217 690.85076711 30.39674569 688.21592624 32.6875 685.5625 C56.6350466 656.69979337 74.71377362 622.34055348 87 587 C87.27005859 586.23091309 87.54011719 585.46182617 87.81835938 584.66943359 C94.82900166 564.43810477 99.53802664 543.26475797 102 522 C102.0935376 521.2073877 102.1870752 520.41477539 102.28344727 519.59814453 C104.95545094 494.11911043 103.3437667 468.17054699 99 443 C98.68651611 441.1761377 98.68651611 441.1761377 98.36669922 439.31542969 C93.6772038 412.93482253 85.91065832 387.4694003 75 363 C74.61763184 362.13503906 74.23526367 361.27007813 73.84130859 360.37890625 C60.78809485 331.13275444 43.05937586 303.9104436 21.24609375 280.4296875 C19.37745905 278.40831222 17.586462 276.35347657 15.8125 274.25 C7.56548562 264.79420337 -1.48400971 255.85495192 -11.34375 248.09765625 C-14.19342865 245.84724826 -16.93303576 243.49072937 -19.6875 241.125 C-32.76295115 230.24837311 -47.30775901 221.49799468 -62 213 C-62.95543701 212.4416748 -62.95543701 212.4416748 -63.93017578 211.87207031 C-98.70745385 191.72111074 -138.8840115 181.22861143 -178.36474609 175.390625 C-179.98632049 175.15025822 -181.60677661 174.90199965 -183.22509766 174.640625 C-275.78609839 159.78488282 -372.72415765 202.91507444 -444.84765625 274.96875 Z " fill="#A84890" transform="translate(741,404)"/>
<path d="M0 0 C0.82967285 0.59022949 1.6593457 1.18045898 2.51416016 1.78857422 C14.07474006 10.05916868 25.14022751 18.83375398 36 28 C37.19129362 28.99492654 38.38269541 29.98972358 39.57421875 30.984375 C52.51116117 41.85470734 64.65553624 53.58244841 76.625 65.5 C77.35879883 66.22912598 78.09259766 66.95825195 78.84863281 67.70947266 C82.87982814 71.75269312 86.73574447 75.89361088 90.46337891 80.21826172 C92.39233003 82.45491334 94.38224 84.63268016 96.375 86.8125 C101.10233313 92.06420957 105.5999471 97.47267407 110 103 C110.50660156 103.63405762 111.01320312 104.26811523 111.53515625 104.92138672 C168.87192654 176.91427589 208.5193023 262.98554822 227 386 C227.08732895 386.93717865 227.1746579 387.8743573 227.26463318 388.8399353 C228.01067763 397.60002417 228.18034073 406.3277423 228.203125 415.11328125 C228.20595238 415.86679556 228.20877975 416.62030987 228.21169281 417.39665794 C228.2265863 421.4017304 228.235872 425.4067679 228.24023438 429.41186523 C228.24457401 432.64505579 228.25830257 435.8779727 228.28125 439.11108398 C228.47649761 467.23083398 226.99146749 494.85400538 222.25 522.625 C222.12338989 523.38373413 221.99677979 524.14246826 221.86633301 524.92419434 C214.036403 571.67000917 199.59284062 616.34582964 179 659 C178.47712402 660.09344727 177.95424805 661.18689453 177.41552734 662.31347656 C158.55072871 701.6026084 134.94123319 738.53611825 107 772 C106.51789063 772.58120605 106.03578125 773.16241211 105.5390625 773.76123047 C99.7439518 780.74297813 93.77200174 787.52776536 87.6015625 794.1796875 C85.28153842 796.69478868 83.01205472 799.24544913 80.75 801.8125 C72.69767659 810.77887093 64.15467613 819.55930699 54.94140625 827.33984375 C52.46555003 829.45702462 50.08338732 831.66781829 47.6875 833.875 C42.28288918 838.79230984 36.71930545 843.4552992 31 848 C30.04311279 848.76570313 30.04311279 848.76570313 29.06689453 849.546875 C17.73638058 858.59226548 6.07726272 866.98306219 -6 875 C-7.04075684 875.69706055 -7.04075684 875.69706055 -8.10253906 876.40820312 C-73.91329726 920.40866195 -149.0830208 948.84021803 -227.5625 959.1875 C-228.73087402 959.3424292 -229.89924805 959.4973584 -231.10302734 959.65698242 C-235.06431167 960.15207559 -239.02887145 960.59324021 -243 961 C-243.85360107 961.08827057 -244.70720215 961.17654114 -245.58666992 961.26748657 C-263.28187977 963.03588427 -280.92107288 963.36386908 -298.68543243 963.31805801 C-300.90867689 963.31241451 -303.1319137 963.30959593 -305.35516357 963.30697632 C-327.03071579 963.26985547 -348.48166765 962.84225503 -370 960 C-371.33522125 959.83151367 -372.6705093 959.66355596 -374.00585938 959.49609375 C-406.94174395 955.30485738 -439.36225557 948.03701226 -471 938 C-472.10811035 937.64856934 -473.2162207 937.29713867 -474.35791016 936.93505859 C-520.98170923 921.92061482 -565.71162328 899.83201682 -606 872 C-606.6815918 871.53094238 -607.36318359 871.06188477 -608.06542969 870.57861328 C-625.62610645 858.45719029 -642.03001689 845.14050435 -658 831 C-658.67434082 830.41049561 -659.34868164 829.82099121 -660.04345703 829.21362305 C-667.21874749 822.86542215 -673.99880821 816.15398238 -680.76000977 809.37036133 C-682.69109547 807.43389451 -684.62749882 805.50286044 -686.56445312 803.57226562 C-692.58752643 797.55272403 -698.53072514 791.53531171 -704 785 C-704.87639176 783.98983229 -705.75394274 782.98066878 -706.6328125 781.97265625 C-714.10844677 773.2432714 -721.12719002 764.20976841 -728 755 C-728.53383301 754.28714844 -729.06766602 753.57429688 -729.61767578 752.83984375 C-748.29700757 727.79010401 -763.93507029 700.86337553 -778 673 C-778.50176758 672.00726074 -779.00353516 671.01452148 -779.52050781 669.99169922 C-815.85253193 597.57297977 -832.28061634 516.99480032 -832.1875 436.25 C-832.18689575 435.27132965 -832.1862915 434.2926593 -832.18566895 433.28433228 C-832.065924 361.32273031 -818.4411344 289.85292172 -789 224 C-788.50918945 222.89640137 -788.01837891 221.79280273 -787.51269531 220.65576172 C-773.10017284 188.44085557 -756.12016852 157.34798766 -735 129 C-734.37593262 128.16098145 -733.75186523 127.32196289 -733.10888672 126.45751953 C-723.03358677 112.96612031 -712.6161283 99.95705406 -701.265625 87.51171875 C-700.04958666 86.16359349 -698.83920804 84.80962492 -697.66772461 83.42260742 C-692.10650489 76.88454585 -686.02370679 70.87275514 -679.94848633 64.81811523 C-678.06671726 62.94170525 -676.19035262 61.06001031 -674.31445312 59.17773438 C-668.37958424 53.23922697 -662.43232198 47.4047002 -656 42 C-654.86963346 41.01599791 -653.74070263 40.03034389 -652.61328125 39.04296875 C-644.95373953 32.39774612 -637.1227621 26.07087439 -629 20 C-628.29746094 19.47148437 -627.59492188 18.94296875 -626.87109375 18.3984375 C-602.98045431 0.44972382 -577.98407931 -15.58695586 -551.59326172 -29.61523438 C-549.18941202 -30.89885662 -546.79837739 -32.20322131 -544.41015625 -33.515625 C-470.39618132 -73.83757722 -382.11344273 -96.39007703 0 0 Z M-403 137 C-403.80518066 137.26893066 -404.61036133 137.53786133 -405.43994141 137.81494141 C-439.65551539 149.38525443 -472.00187864 167.18536395 -500 190 C-501.01964844 190.81597656 -502.03929688 191.63195312 -503.08984375 192.47265625 C-511.10931218 199.03217017 -518.47303126 206.26337413 -525.8125 213.5625 C-526.30055115 214.04528412 -526.78860229 214.52806824 -527.29144287 215.02548218 C-533.98957022 221.6676532 -540.1649579 228.58435318 -546 236 C-546.57435791 236.72034424 -547.14871582 237.44068848 -547.74047852 238.18286133 C-591.53475053 293.42328737 -616.46088133 360.85804488 -616.31567383 431.47729492 C-616.31252041 434.66685447 -616.33605985 437.85547633 -616.36132812 441.04492188 C-616.41844571 459.55475611 -614.7202513 477.89462505 -610.75 496 C-610.43639526 497.45853394 -610.43639526 497.45853394 -610.11645508 498.9465332 C-599.19393083 548.16307193 -576.75331898 594.8282065 -545 634 C-543.95392578 635.33224609 -543.95392578 635.33224609 -542.88671875 636.69140625 C-536.37256924 644.87279695 -529.23343783 652.45759624 -522 660 C-521.46407227 660.55929199 -520.92814453 661.11858398 -520.37597656 661.69482422 C-513.653168 668.6687358 -506.6097832 674.99438717 -499 681 C-497.83298275 681.95501527 -496.66770997 682.91216501 -495.50390625 683.87109375 C-487.0150168 690.83097718 -478.27517046 697.13218718 -469 703 C-467.35257813 704.05380859 -467.35257813 704.05380859 -465.671875 705.12890625 C-430.25428496 727.32201275 -391.22314672 742.20918001 -350 749 C-348.49735596 749.2477417 -348.49735596 749.2477417 -346.96435547 749.50048828 C-316.7874287 754.20180747 -284.10586505 754.15132624 -254 749 C-252.9579541 748.82307617 -251.9159082 748.64615234 -250.84228516 748.46386719 C-236.29346692 745.91622897 -222.07871766 742.45734401 -208 738 C-206.78183594 737.61787354 -206.78183594 737.61787354 -205.5390625 737.22802734 C-165.18078465 724.37430267 -125.57804583 701.94249023 -94.828125 672.6796875 C-92.51519988 670.488159 -90.17148838 668.38125188 -87.75 666.3125 C-80.58066426 660.09404458 -74.14283811 653.21877309 -68 646 C-67.21238281 645.10152344 -66.42476562 644.20304687 -65.61328125 643.27734375 C-46.24173411 621.0289773 -31.16475085 596.31966992 -18 570 C-17.62004883 569.25331055 -17.24009766 568.50662109 -16.84863281 567.73730469 C20.20921764 494.68039951 19.87118777 413.35567353 -4.95703125 336.88671875 C-19.04708065 295.05688459 -42.49717109 256.82205155 -72.5703125 224.61328125 C-74.68133523 222.34274394 -76.72826474 220.03720564 -78.75 217.6875 C-83.65257103 212.05129007 -88.93970108 206.92270404 -94.60546875 202.05859375 C-96.41353618 200.50418668 -98.20501308 198.93045245 -99.98828125 197.34765625 C-146.19480365 156.57156292 -203.84726565 134.14431353 -264 124 C-265.06653809 123.81920898 -266.13307617 123.63841797 -267.23193359 123.45214844 C-312.62792301 116.09221849 -359.69802026 122.364209 -403 137 Z " fill="#787878" transform="translate(4163,456)"/>
</svg>
