<?xml version="1.0" encoding="UTF-8"?>
<svg version="1.1" xmlns="http://www.w3.org/2000/svg" width="3000" height="2000">
    <symbol id="icon" viewBox="0 0 3000 2000" fill="none">
        <defs>
            <style>
                .cls-1 {
                    fill: var(--color-1);
                    transition: all 0.2s ease-in-out;
                }
            </style>
        </defs>
        <path
            d="M0 0 C1.37379681 0.16849034 2.74765904 0.33644794 4.12158203 0.50390625 C87.13060653 10.76388138 167.83074884 40.08447922 271 109 C272.04671875 109.79019531 273.0934375 110.58039063 274.171875 111.39453125 C280.91940313 116.50657117 287.43912032 121.83257746 293.8671875 127.33984375 C296.77980802 129.82983818 299.75893661 132.22964979 302.75 134.625 C306.98786525 138.06941878 310.86421539 141.71767622 314.63671875 145.6640625 C316.60580697 147.61036789 318.60713763 149.41046299 320.703125 151.21484375 C325.36090246 155.25595162 329.71474696 159.56762099 334.0625 163.9375 C334.82626953 164.69740234 335.59003906 165.45730469 336.37695312 166.24023438 C340.56434403 170.43478933 344.58511673 174.71508664 348.4519043 179.20678711 C350.53961136 181.62505053 352.70728309 183.96596469 354.875 186.3125 C359.79577302 191.7149752 364.4270049 197.30237581 369 203 C369.92389449 204.13198786 370.8484029 205.26347487 371.7734375 206.39453125 C428.27843385 275.80475781 467.25150918 359.77125768 494.25 518.6875 C494.33024414 519.72366455 494.41048828 520.7598291 494.49316406 521.82739258 C495.19509859 532.2641796 495 542.46530344 495 553 C445.5 553 396 553 345 553 C344.34 542.44 343.68 531.88 343 521 C337.32447683 470.1229887 324.65498546 421.96158589 302 376 C301.54657227 375.07928711 301.09314453 374.15857422 300.62597656 373.20996094 C290.23413879 352.32760468 278.04990864 332.61078235 264 314 C263.55172852 313.40010254 263.10345703 312.80020508 262.64160156 312.18212891 C253.71871501 300.25004783 244.04712856 288.99371753 234 278 C233.07649417 276.9716493 232.15333504 275.94298718 231.23046875 274.9140625 C224.66712415 267.64396319 217.78573853 260.88374433 210.49462891 254.34619141 C209.13519326 253.12176668 207.79129666 251.88014469 206.44921875 250.63671875 C200.19950846 244.87798407 193.6195055 239.61635359 186.8828125 234.44580078 C185.63024713 233.48396311 184.38022738 232.51880102 183.1328125 231.55029297 C166.49634066 218.64580975 148.83027748 207.53582447 130.42089844 197.34179688 C128.90253156 196.50023331 127.3870723 195.65337882 125.87597656 194.79882812 C41.64138109 147.1718202 -61.97643114 136.74058999 -173.84667969 161.03613281 C-182.31358148 163.44861384 -190.66688444 166.16329513 -199 169 C-200.1044043 169.36931641 -201.20880859 169.73863281 -202.34667969 170.11914062 C-248.92699263 185.85256783 -292.4655584 211.37815679 -330 243 C-330.54897949 243.45874512 -331.09795898 243.91749023 -331.66357422 244.39013672 C-338.69120059 250.270079 -345.46011316 256.23408648 -351.81640625 262.84375 C-354 265 -354 265 -356.56640625 267.04296875 C-358.80240493 268.84109931 -360.54235583 270.61779685 -362.375 272.8125 C-364.61380982 275.43731152 -366.89034494 277.9198692 -369.375 280.3125 C-373.10643547 283.98576164 -376.35174657 287.99182373 -379.62890625 292.0703125 C-381.95522096 294.9446717 -384.34778994 297.75148596 -386.75 300.5625 C-402.27024479 319.18679374 -415.24436361 339.84391517 -427 361 C-427.47550293 361.85239258 -427.95100586 362.70478516 -428.44091797 363.58300781 C-473.30987495 444.74589892 -486.31451918 540.06439874 -462.99951172 666.54589844 C-442.30395667 737.70523704 -405.48349373 799.45166207 -353.3125 851.8125 C-351.97566162 853.15634766 -351.97566162 853.15634766 -350.61181641 854.52734375 C-345.56863292 859.55832523 -340.43950767 864.4007698 -335 869 C-334.36521729 869.54148682 -333.73043457 870.08297363 -333.07641602 870.64086914 C-311.01332118 889.3505731 -287.28612406 905.01403369 -262 919 C-261.10571289 919.50176758 -260.21142578 920.00353516 -259.29003906 920.52050781 C-243.44142695 929.36955336 -227.08601516 935.9312363 -210 942 C-208.98357422 942.37108887 -207.96714844 942.74217773 -206.91992188 943.12451172 C-166.31402181 957.93187507 -122.80477008 963.94626364 -80.05297852 968.76757812 C-78.25425745 968.971215 -76.45617301 969.18045903 -74.65820312 969.390625 C-62.00683104 970.84143081 -49.34201552 971.23318428 -36.62195683 971.53698635 C-35.73440453 971.55855035 -34.84685224 971.58011434 -33.93240443 971.60233179 C-13.16764494 972.09618632 7.59324574 972.15473034 28.36292634 972.1572054 C33.85802119 972.15897203 39.35310915 972.1664768 44.84819978 972.17318195 C54.43271238 972.18412098 64.01722244 972.19156373 73.60173988 972.19658089 C87.85309334 972.20405748 102.10443808 972.21715414 116.35578624 972.23132664 C140.34031286 972.25510902 164.32484132 972.27428018 188.30937386 972.29092598 C212.03042888 972.30740271 235.75148095 972.32590213 259.47253227 972.34705925 C260.58133179 972.34804684 260.58133179 972.34804684 261.7125313 972.34905439 C268.46489532 972.35506968 275.21725931 972.36110956 281.96962328 972.36717889 C298.7483335 972.38226006 315.52704398 972.39703345 332.30575466 972.41159725 C333.06945893 972.41226039 333.83316319 972.41292353 334.62001001 972.41360676 C371.6863687 972.44576525 408.75273001 972.47437579 445.8190918 972.50268555 C458.66707359 972.51250029 471.51505538 972.5223308 484.36303711 972.53222656 C485.55843736 972.53314726 485.55843736 972.53314726 486.77798711 972.53408656 C523.88979337 972.56269169 561.00159738 972.59383247 598.11340104 972.62561907 C600.52547322 972.62768499 602.9375454 972.62974982 605.34961758 972.63181442 C621.33578772 972.64549948 637.32195783 972.65922806 653.30812791 972.67298577 C685.11121704 972.70035514 716.9143064 972.72746895 748.7173959 972.75440695 C750.2316253 972.75568954 751.7458547 972.75697231 753.2600841 972.75825526 C831.37849054 972.82444035 909.4969001 972.88655139 987.61531067 972.94764709 C988.70280801 972.94849764 989.79030535 972.94934819 990.91075715 972.95022452 C1012.27383802 972.96692558 1033.63691902 972.9834455 1055 973 C1055 1022.17 1055 1071.34 1055 1122 C1005.87852709 1122.00810491 1005.87852709 1122.00810491 986.82044983 1122.0111084 C985.04092598 1122.01138889 985.04092598 1122.01138889 983.22545215 1122.01167505 C904.62744397 1122.02404546 826.02943585 1122.03521728 747.431427 1122.04234314 C745.89740668 1122.04248259 744.36338637 1122.04262204 742.82936605 1122.04276149 C710.62408388 1122.04568469 678.4188017 1122.04840135 646.21351949 1122.05087968 C630.03377217 1122.05212499 613.85402485 1122.05340996 597.67427754 1122.05473244 C595.2337483 1122.05493169 592.79321906 1122.05512981 590.35268983 1122.05532788 C552.80838884 1122.05838491 515.26408818 1122.06228811 477.7197876 1122.06866455 C476.51055776 1122.0688699 476.51055776 1122.0688699 475.27689903 1122.0690794 C462.28078467 1122.07129154 449.28467032 1122.07357524 436.28855598 1122.07586844 C398.81831234 1122.08247908 361.34806895 1122.08855349 323.87782478 1122.09113979 C323.10593484 1122.09119333 322.33404489 1122.09124686 321.53876434 1122.09130202 C304.58666398 1122.09246827 287.63456362 1122.0933629 270.68246323 1122.09400098 C263.85967036 1122.09426257 257.03687749 1122.0945632 250.21408463 1122.09487724 C249.09405478 1122.09492738 249.09405478 1122.09492738 247.95139808 1122.09497854 C223.96381798 1122.09607176 199.97623976 1122.10033184 175.98866042 1122.10628221 C151.78952338 1122.11227038 127.59038815 1122.11509284 103.39125035 1122.11362399 C88.3972548 1122.11271735 73.40326488 1122.11445441 58.40927041 1122.12079754 C48.81673723 1122.12457631 39.22420842 1122.12464359 29.63167492 1122.12183181 C24.18402081 1122.12033714 18.73637937 1122.12032356 13.28872667 1122.12488318 C-6.72381405 1122.14057301 -26.72633906 1122.07922501 -46.73335075 1121.57060909 C-47.86881326 1121.54305879 -47.86881326 1121.54305879 -49.02721441 1121.51495191 C-134.05938999 1119.38495075 -222.16185631 1103.53262265 -312.23388672 1062.31689453 C-314.80047405 1061.09499056 -317.38039574 1059.91232347 -319.97265625 1058.74609375 C-352.07026013 1044.20077435 -382.43216522 1023.86282452 -410 1002 C-410.86625 1001.31550781 -411.7325 1000.63101563 -412.625 999.92578125 C-415.09337482 997.9626519 -417.54833224 995.983941 -420 994 C-420.88300781 993.29230469 -421.76601562 992.58460938 -422.67578125 991.85546875 C-428.44114856 987.19913956 -433.98507493 982.36245944 -439.4375 977.34375 C-441.65684276 975.31386333 -443.90672034 973.33504502 -446.1875 971.375 C-449.62681392 968.39099241 -452.81351376 965.20730179 -456.00390625 961.9609375 C-457.91511619 960.08338879 -459.89034635 958.35190586 -461.9375 956.625 C-465.91156819 953.21087879 -469.31517355 949.40815341 -472.7734375 945.48046875 C-474.82398468 943.19608724 -476.93605489 941.02591325 -479.125 938.875 C-482.96323708 935.08191865 -486.49181203 931.09740101 -490 927 C-490.88212099 925.99288348 -491.76499245 924.986424 -492.6484375 923.98046875 C-499.90844348 915.67098452 -506.70899384 907.07425023 -513.3203125 898.24169922 C-515.00771944 895.98969769 -516.70690442 893.74690663 -518.40625 891.50390625 C-538.80847006 864.39130229 -555.81207225 835.29885139 -571 805 C-571.49773926 804.0085498 -571.99547852 803.01709961 -572.50830078 801.99560547 C-603.64352411 739.54481851 -622.30809901 669.64407755 -627 600 C-627.08612549 598.74944824 -627.17225098 597.49889648 -627.26098633 596.21044922 C-628.05596944 583.89081467 -628.20096319 571.5925077 -628.1875 559.25 C-628.18689575 558.21953552 -628.1862915 557.18907104 -628.18566895 556.12738037 C-628.15853815 539.0022235 -627.68744063 522.05313112 -626 505 C-625.87641113 503.72721191 -625.75282227 502.45442383 -625.62548828 501.14306641 C-619.39163189 438.45911381 -602.06323912 378.24850557 -576 321 C-575.42233887 319.72286133 -575.42233887 319.72286133 -574.83300781 318.41992188 C-562.67897461 291.6660306 -547.69575234 266.1655843 -531 242 C-530.54979492 241.34402832 -530.09958984 240.68805664 -529.63574219 240.01220703 C-518.61622604 223.99652233 -506.73101793 208.68963607 -494 194 C-493.36707031 193.26652344 -492.73414063 192.53304687 -492.08203125 191.77734375 C-487.45853468 186.45556166 -482.7390537 181.21886443 -478 176 C-477.54463867 175.49807129 -477.08927734 174.99614258 -476.62011719 174.47900391 C-467.58017414 164.53506656 -458.42957247 154.61721932 -448.1796875 145.8984375 C-445.86252467 143.88026342 -443.61821543 141.7969405 -441.37329102 139.69921875 C-435.1183755 133.85827809 -428.69230051 128.33950616 -422 123 C-420.87030792 122.07908815 -419.74144468 121.15715889 -418.61328125 120.234375 C-345.68759021 60.84189566 -257.06314065 21.15726805 -134.02545166 0.24285889 C-132.08240173 0.00988026 -130.14146561 -0.24052746 -128.20068359 -0.49169922 C-86.50320215 -5.79487018 -41.67501409 -5.34551374 0 0 Z "
            class="cls-1" transform="translate(1599,441)" />
        <path
            d="M0 0 C0.73033447 -0.00067474 1.46066895 -0.00134949 2.21313477 -0.00204468 C73.84999652 0.10157196 144.0601267 24.45352775 200 69.25 C200.91910156 69.97574219 201.83820312 70.70148438 202.78515625 71.44921875 C218.31788195 83.89774856 233.61965836 97.95106472 245.921875 113.625 C247.30354492 115.37026727 248.73140698 117.07996537 250.203125 118.75 C289.68876714 163.72702283 312.59318492 224.76790852 319.8125 283.5625 C319.93657227 284.53815918 320.06064453 285.51381836 320.18847656 286.51904297 C321.30691681 296.55036326 321 305.96245527 321 316.25 C273.48 316.25 225.96 316.25 177 316.25 C176.01 307.34 175.02 298.43 174 289.25 C168.32375081 262.76083711 158.47694073 237.95431896 142 216.25 C141.03513672 214.96996094 141.03513672 214.96996094 140.05078125 213.6640625 C110.84033864 176.0993148 69.11698447 152.6211819 22 146.25 C-21.97672294 140.81524011 -69.40850385 152.51768009 -104.83447266 179.65527344 C-108.66350415 182.73489526 -112.33339369 185.98005845 -116 189.25 C-116.71285156 189.84167969 -117.42570312 190.43335938 -118.16015625 191.04296875 C-149.98773582 217.51148975 -169.93319819 260.06839153 -174.69091797 300.69433594 C-178.84569422 348.49067194 -166.60440098 395.99651951 -135.6875 433.3125 C-132.53593771 437.02977411 -129.29266786 440.65758582 -126 444.25 C-125.30390625 445.01828125 -124.6078125 445.7865625 -123.890625 446.578125 C-85.23269255 487.21851552 -25.47812961 498.89930576 28.43137801 500.45206398 C30.33425874 500.4921784 32.23724154 500.52764046 34.14028358 500.55918789 C35.21682229 500.57944787 36.29336099 500.59970786 37.40252207 500.62058178 C41.05510925 500.68619635 44.70775474 500.74383619 48.36050415 500.79966736 C49.67716956 500.82055233 50.99383497 500.8414373 52.35039933 500.86295515 C93.64067104 501.5062841 134.93834856 501.42591027 176.232486 501.44855712 C188.81564441 501.45565937 201.39879572 501.4684465 213.98194931 501.48132664 C237.18910902 501.50493048 260.39626994 501.52422662 283.60343552 501.54092598 C306.53400264 501.5574399 329.46456678 501.57595416 352.39513016 501.59705925 C353.46959097 501.59804684 353.46959097 501.59804684 354.56575807 501.59905439 C361.1096365 501.60507024 367.6535149 501.61111015 374.19739328 501.61717889 C390.45327916 501.63225417 406.70916531 501.64702843 422.96505165 501.66159725 C424.07453871 501.66259196 424.07453871 501.66259196 425.20643966 501.66360676 C461.04810627 501.6957142 496.88977555 501.72435052 532.73144531 501.75268555 C545.144633 501.76250088 557.55782068 501.7723317 569.9710083 501.78222656 C571.1260588 501.78314726 571.1260588 501.78314726 572.30444365 501.78408656 C608.20811999 501.81272682 644.11179404 501.84385855 680.01546773 501.87561907 C682.35091483 501.87768497 684.68636194 501.87974981 687.02180904 501.88181442 C702.50099837 501.89550027 717.98018766 501.90922876 733.45937693 501.92298577 C764.25013062 501.95035043 795.04088453 501.97746486 825.8316386 502.00440695 C827.29744947 502.00568954 828.76326033 502.00697231 830.2290712 502.00825526 C905.77916127 502.07437855 981.32925449 502.13651333 1056.87934875 502.19764709 C1057.93043808 502.19849764 1058.9815274 502.19934819 1060.06446791 502.20022452 C1080.70964519 502.21692354 1101.35482261 502.2334448 1122 502.25 C1122 549.77 1122 597.29 1122 646.25 C1075.46989395 646.25810491 1075.46989395 646.25810491 1057.41244507 646.2611084 C1055.72635521 646.26138889 1055.72635521 646.26138889 1054.00620294 646.26167505 C979.46178726 646.27405751 904.91737169 646.28522727 830.37295532 646.29234314 C828.9160203 646.29248259 827.45908527 646.29262204 826.00215025 646.29276149 C795.40771157 646.2956854 764.81327287 646.29840198 734.21883415 646.30087968 C718.84582219 646.30212489 703.47281024 646.30340985 688.09979829 646.30473244 C685.78111683 646.30493169 683.46243538 646.30512981 681.14375392 646.30532788 C645.5209659 646.30838088 609.89817822 646.31227641 574.27539062 646.31866455 C573.51189672 646.31880145 572.74840281 646.31893835 571.96177273 646.3190794 C559.65526962 646.32129123 547.34876654 646.32357505 535.04226345 646.32586844 C499.51183166 646.33248866 463.98140014 646.33855964 428.45096779 646.34113979 C427.35047148 646.3412201 427.35047148 646.3412201 426.22774292 646.34130202 C410.10581969 646.34246892 393.98389646 646.34336325 377.86197321 646.34400098 C371.37094015 646.34426253 364.8799071 646.34456316 358.38887405 646.34487724 C357.32337998 646.34492738 357.32337998 646.34492738 356.23636077 646.34497854 C333.50780705 646.34606743 310.77925533 646.35031246 288.05070241 646.35628221 C264.43053813 646.36247083 240.81037669 646.36499999 217.19021146 646.36350138 C204.80715804 646.36281515 192.42410993 646.36367314 180.04105759 646.36920547 C94.40709545 646.40570495 94.40709545 646.40570495 54.53738713 645.89517191 C52.4074673 645.86869484 50.27753412 645.84492055 48.14757423 645.82191844 C23.49509425 645.54740869 -1.03722482 644.19228362 -25.5 641.0625 C-26.73914658 640.9063472 -26.73914658 640.9063472 -28.00332642 640.74703979 C-53.26856137 637.53144264 -78.78197019 633.30144132 -103 625.25 C-103.85561523 624.9710791 -104.71123047 624.6921582 -105.59277344 624.40478516 C-145.02167955 611.3839096 -182.22845471 589.41124428 -212.78515625 561.28125 C-214.75839244 559.47158012 -216.77107813 557.73160109 -218.8125 556 C-227.47541703 548.44635893 -235.67851984 540.10735075 -243 531.25 C-243.44778809 530.71600586 -243.89557617 530.18201172 -244.35693359 529.63183594 C-299.21486675 464.11048711 -326.65246364 380.53657631 -320 295.25 C-316.26995981 254.10574248 -305.63166137 214.18113033 -287 177.25 C-286.61779297 176.4775293 -286.23558594 175.70505859 -285.84179688 174.90917969 C-274.02378213 151.11682726 -258.72497936 129.00590324 -241 109.25 C-240.55479004 108.74839355 -240.10958008 108.24678711 -239.65087891 107.72998047 C-228.62798938 95.32769936 -217.08386476 83.48018232 -204 73.25 C-202.87144098 72.32305352 -201.74527649 71.3931866 -200.62109375 70.4609375 C-144.79392199 24.42985437 -72.04514354 0.06092569 0 0 Z "
            class="cls-1" transform="translate(1532,677.75)" />
        <path
            d="M0 0 C122.1 0 244.2 0 370 0 C370 371.58 370 743.16 370 1126 C320.17 1126 270.34 1126 219 1126 C219 804.25 219 482.5 219 151 C146.73 151 74.46 151 0 151 C0 101.17 0 51.34 0 0 Z "
            class="cls-1" transform="translate(510,437)" />
        <path
            d="M0 0 C101.97 0 203.94 0 309 0 C309 297.33 309 594.66 309 901 C261.15 901 213.3 901 164 901 C164 651.52 164 402.04 164 145 C109.88 145 55.76 145 0 145 C0 97.15 0 49.3 0 0 Z "
            class="cls-1" transform="translate(346,662)" />
        <path
            d="M0 0 C0.72316406 0.63164062 1.44632813 1.26328125 2.19140625 1.9140625 C2.86300781 2.44257813 3.53460937 2.97109375 4.2265625 3.515625 C22.28005988 18.08763283 32.15443418 41.4087396 35.19140625 63.9140625 C35.47012168 67.83598679 35.52589683 71.73316623 35.50390625 75.6640625 C35.49653442 77.23776611 35.49653442 77.23776611 35.48901367 78.84326172 C35.09256989 105.26064918 23.90994953 128.59765706 5.94140625 147.6015625 C-14.8527981 167.45057574 -40.54243459 175.58143493 -68.95703125 175.1875 C-83.60748623 174.70187612 -96.82536733 170.52201286 -109.80859375 163.9140625 C-110.85402344 163.39070312 -111.89945313 162.86734375 -112.9765625 162.328125 C-137.61558596 148.98334347 -152.9747363 125.77922464 -160.84765625 99.4375 C-166.93918534 74.21743098 -162.6756042 48.0234241 -149.96484375 25.671875 C-135.27362428 2.49105739 -112.45565798 -13.65698804 -85.80859375 -20.0859375 C-56.11385697 -25.8807648 -23.38860254 -19.95930168 0 0 Z M-125.80859375 21.9140625 C-140.80225342 39.1831178 -147.89166583 60.01832282 -146.58984375 82.73046875 C-144.57581803 101.30210973 -137.17496995 117.96161801 -124.80859375 131.9140625 C-124.27878906 132.52636719 -123.74898437 133.13867188 -123.203125 133.76953125 C-109.65660975 148.38638845 -89.34466427 157.22508655 -69.640625 158.2265625 C-45.32768785 158.99512382 -25.1014294 152.06205084 -6.80859375 135.9140625 C9.00905847 120.8554617 17.93873591 100.61200259 18.59643555 78.8984375 C18.83181687 58.17072295 12.90985696 39.71416867 -0.80859375 23.9140625 C-1.57171875 22.9034375 -2.33484375 21.8928125 -3.12109375 20.8515625 C-17.10143525 5.57072411 -38.32867942 -4.37680241 -58.96484375 -5.3046875 C-84.79872349 -6.04598329 -107.78504949 3.27547147 -125.80859375 21.9140625 Z "
            class="cls-1" transform="translate(2452.80859375,469.0859375)" />
        <path
            d="M0 0 C8.3325 -0.0825 16.665 -0.165 25.25 -0.25 C27.85551758 -0.28641602 30.46103516 -0.32283203 33.14550781 -0.36035156 C35.24803854 -0.37205161 37.35057844 -0.3822403 39.453125 -0.390625 C41.04519775 -0.4213208 41.04519775 -0.4213208 42.66943359 -0.45263672 C52.36238084 -0.45708099 62.37408813 1.34363591 69.6015625 8.2890625 C76.05917246 16.18971379 76.81684842 25.11495023 76 35 C74.27507392 41.80082322 69.77230099 45.38918834 64 49 C63.01 49.495 63.01 49.495 62 50 C62.47050781 50.36351562 62.94101563 50.72703125 63.42578125 51.1015625 C64.04839844 51.60429688 64.67101563 52.10703125 65.3125 52.625 C65.92738281 53.11226562 66.54226562 53.59953125 67.17578125 54.1015625 C71.81328711 58.92774633 72.56947159 64.25799715 73.125 70.625 C73.20427734 71.41680664 73.28355469 72.20861328 73.36523438 73.02441406 C73.9014515 78.48186354 74.33610364 83.9473722 74.65625 89.421875 C75.06002218 92.45016631 75.96077251 95.13374354 77 98 C73.89601022 98.08710289 70.79233452 98.14042309 67.6875 98.1875 C66.80642578 98.21263672 65.92535156 98.23777344 65.01757812 98.26367188 C64.17001953 98.27333984 63.32246094 98.28300781 62.44921875 98.29296875 C61.66893311 98.3086792 60.88864746 98.32438965 60.0847168 98.34057617 C57.41657191 97.90468648 56.59815752 97.15467236 55 95 C53.92959699 92.02286897 53.85311156 89.15326774 53.7890625 86.0078125 C53.76070312 85.05519531 53.73234375 84.10257813 53.703125 83.12109375 C53.65125017 81.13169415 53.60691742 79.14208289 53.5703125 77.15234375 C53.39601947 71.77104649 53.17402709 67.56448392 50 63 C42.24478906 56.65324666 28.18614574 58.23256065 19 58 C19 71.2 19 84.4 19 98 C12.73 98 6.46 98 0 98 C0 65.66 0 33.32 0 0 Z M19 13 C19 22.9 19 32.8 19 43 C24.94 43.0928125 24.94 43.0928125 31 43.1875 C32.84851562 43.22846802 32.84851562 43.22846802 34.734375 43.27026367 C41.22415926 43.3191262 46.14813555 42.88828865 52 40 C56.32927456 35.44871137 57.31491588 32.42659941 57.20703125 26.31640625 C56.89958666 22.87650734 56.01916204 20.80077315 54 18 C46.75350934 12.29064372 38.42373267 12.86427443 29.625 12.9375 C26.11875 12.958125 22.6125 12.97875 19 13 Z "
            class="cls-1" transform="translate(2354,496)" />
    </symbol>
</svg>