<?xml version="1.0" encoding="UTF-8"?>
<svg version="1.1" xmlns="http://www.w3.org/2000/svg" width="1200" height="1200">
    <symbol id="icon" viewBox="0 0 24 24" fill="none">
        <defs>
            <style>
                .cls-1 {
                    fill: var(--color-1);
                    transition: all 0.2s ease-in-out;
                }
            </style>
        </defs>
        <path class="cls-1"
            d="M0 0 C0.68402893 -0.00040283 1.36805786 -0.00080566 2.07281494 -0.0012207 C13.65972695 0.03799851 24.20534592 1.19548347 35.0625 5.4375 C35.79597656 5.72157715 36.52945313 6.0056543 37.28515625 6.29833984 C47.76392673 10.501238 56.53943074 16.07444733 65.0625 23.4375 C65.73539063 23.99824219 66.40828125 24.55898437 67.1015625 25.13671875 C77.63626816 34.68529899 85.95306699 50.50162123 87.26977539 64.66748047 C87.36567072 67.01153294 87.39170044 69.34156491 87.375 71.6875 C87.36654053 72.93865601 87.36654053 72.93865601 87.35791016 74.21508789 C86.98288001 93.4028929 77.80603981 108.13556553 64.52587891 121.41113281 C45.4912728 139.58140262 20.64378214 144.11052838 -4.5546875 143.7734375 C-9.69286191 143.60195811 -14.57192592 142.94365825 -19.60205078 141.8984375 C-31.75483595 139.49989491 -41.94704407 145.67365284 -52.0625 151.8125 C-54.1785008 153.07230785 -56.29572759 154.33005836 -58.4140625 155.5859375 C-59.49204102 156.2262793 -60.57001953 156.86662109 -61.68066406 157.52636719 C-66.8861472 160.58097903 -72.16039109 163.5089445 -77.4375 166.4375 C-85.61996622 170.98917148 -93.74059026 175.63011161 -101.8125 180.375 C-111.48321436 186.05595608 -121.25250834 191.54009891 -131.06835938 196.96582031 C-140.57670371 202.22418135 -150.01941536 207.58968004 -159.43994141 213.00341797 C-163.62263712 215.40509486 -167.81165136 217.79569987 -172 220.1875 C-173.75003049 221.18744665 -175.50002962 222.18744816 -177.25 223.1875 C-181.33333333 225.52083333 -185.41666667 227.85416667 -189.5 230.1875 C-190.64227051 230.84024902 -191.78454102 231.49299805 -192.96142578 232.16552734 C-195.33208885 233.52020368 -197.70286847 234.87467575 -200.07373047 236.22900391 C-205.48271046 239.31902397 -210.89111295 242.41002794 -216.29615784 245.50692749 C-219.23868101 247.19285957 -222.18170472 248.87791628 -225.125 250.5625 C-225.99555527 251.06079315 -225.99555527 251.06079315 -226.88369751 251.56915283 C-235.12406938 256.2834661 -243.39479219 260.94087746 -251.6875 265.5625 C-259.78471325 270.07525171 -267.82029194 274.67888697 -275.8125 279.375 C-284.2872635 284.35465607 -292.83156553 289.18825596 -301.4375 293.9375 C-313.16527942 300.41142986 -324.78646671 307.05434925 -336.30908203 313.88720703 C-338.10922045 314.94896432 -339.91800941 315.99615238 -341.73388672 317.03076172 C-342.62479004 317.54525879 -343.51569336 318.05975586 -344.43359375 318.58984375 C-345.22822021 319.04222412 -346.02284668 319.49460449 -346.84155273 319.96069336 C-350.61637872 322.62043971 -351.79520379 324.80733106 -352.8125 329.3125 C-353.21765463 333.40991284 -352.04619449 335.89489325 -349.9375 339.4375 C-349.9375 340.0975 -349.9375 340.7575 -349.9375 341.4375 C-348.87063965 341.8401709 -348.87063965 341.8401709 -347.78222656 342.25097656 C-344.86322174 343.46848115 -342.18196807 344.87866794 -339.421875 346.421875 C-338.3484082 347.02016113 -337.27494141 347.61844727 -336.16894531 348.23486328 C-335.02006836 348.8792334 -333.87119141 349.52360352 -332.6875 350.1875 C-331.47767691 350.8633653 -330.26771377 351.53897995 -329.05761719 352.21435547 C-325.94950248 353.94999393 -322.84340964 355.68921799 -319.73779297 357.42932129 C-316.96190474 358.98384128 -314.1839864 360.53472302 -311.40625 362.0859375 C-300.45303397 368.20675183 -289.51977888 374.36217896 -278.60058594 380.54345703 C-271.5574442 384.52829724 -264.50027549 388.48757741 -257.4375 392.4375 C-249.42627949 396.91784925 -241.4253194 401.41556092 -233.4375 405.9375 C-221.29339907 412.81122397 -209.11687077 419.62651937 -196.9375 426.4375 C-183.80980126 433.77880716 -170.6902374 441.13338105 -157.60107422 448.54321289 C-150.55774036 452.52808246 -143.50043416 456.48748867 -136.4375 460.4375 C-127.4781579 465.44809503 -118.53468026 470.48579051 -109.6015625 475.54296875 C-102.55803653 479.52786769 -95.50059283 483.48739994 -88.4375 487.4375 C-80.42627937 491.91784932 -72.42533046 496.4155803 -64.4375 500.9375 C-53.26336402 507.26188134 -42.06519394 513.54265162 -30.85546875 519.80371094 C-28.06658141 521.36522651 -25.28261941 522.93516125 -22.5 524.5078125 C-20.87502109 525.42191248 -19.25002242 526.33597736 -17.625 527.25 C-16.89627686 527.66467529 -16.16755371 528.07935059 -15.41674805 528.5065918 C-10.14656515 531.46080977 -6.25375716 532.60088708 -0.25 532.75 C0.72324219 532.78738281 1.69648437 532.82476563 2.69921875 532.86328125 C11.45558148 531.75475217 19.55104823 526.14558408 27.1875 522 C28.32985107 521.38237793 29.47220215 520.76475586 30.64916992 520.12841797 C38.87730557 515.66964727 47.03912824 511.0982023 55.17333984 506.47045898 C62.85244901 502.10551236 70.57449492 497.8217426 78.3125 493.5625 C80.78387851 492.20186713 83.25523962 490.84120266 85.7265625 489.48046875 C86.64460411 488.97503792 86.64460411 488.97503792 87.58119202 488.45939636 C97.30439271 483.1039226 107.00130738 477.70100231 116.70214844 472.30517578 C120.11526177 470.40817513 123.53004978 468.5142217 126.9453125 466.62109375 C137.61270665 460.70594463 148.26651197 454.77025137 158.875 448.75 C168.15415034 443.48553518 177.50091288 438.35475981 186.875 433.26171875 C199.71529332 426.2821696 212.44658596 419.10449621 225.19506836 411.95922852 C238.60174209 404.44878912 252.04153381 396.99801897 265.47851562 389.54199219 C278.53840593 382.29438849 291.58988743 375.03259254 304.6159668 367.72436523 C310.16206865 364.61472664 315.71474975 361.51750784 321.27734375 358.4375 C321.88184357 358.10258545 322.48634338 357.7676709 323.10916138 357.42260742 C326.02338593 355.80816952 328.93854948 354.19550645 331.85546875 352.5859375 C334.93188474 350.88265352 337.99828517 349.16261481 341.0625 347.4375 C342.01914551 346.9115625 342.97579102 346.385625 343.96142578 345.84375 C344.85200684 345.3384375 345.74258789 344.833125 346.66015625 344.3125 C347.44011963 343.87679688 348.22008301 343.44109375 349.02368164 342.9921875 C352.08169679 340.66031821 353.79860242 337.94844301 354.4609375 334.15625 C354.45320312 333.4240625 354.44546875 332.691875 354.4375 331.9375 C354.44523438 331.2053125 354.45296875 330.473125 354.4609375 329.71875 C353.76396245 325.72822619 351.97582968 323.11249904 348.73193359 320.71508789 C347.36029053 319.94539673 347.36029053 319.94539673 345.9609375 319.16015625 C344.40862427 318.27710815 344.40862427 318.27710815 342.82495117 317.3762207 C341.14816284 316.44749146 341.14816284 316.44749146 339.4375 315.5 C338.26672116 314.83987151 337.09656412 314.17863913 335.92700195 313.51635742 C332.9040894 311.80860762 329.87308888 310.11581675 326.83929443 308.42749023 C324.06229407 306.88020756 321.29119323 305.32244472 318.51953125 303.765625 C314.34934073 301.42560404 310.17575225 299.09179836 306 296.76171875 C300.56603179 293.72524393 295.15249468 290.65457278 289.75 287.5625 C288.92193848 287.08893066 288.09387695 286.61536133 287.24072266 286.12744141 C282.77568906 283.57127948 278.31515658 281.00745706 273.85850525 278.43670654 C271.39048962 277.0140519 268.92064412 275.5945914 266.45059204 274.17547607 C264.69219647 273.16366597 262.93625742 272.14759041 261.18041992 271.13134766 C255.39616148 267.80914566 249.57181155 264.57511431 243.64453125 261.515625 C242.54729736 260.94618164 241.45006348 260.37673828 240.31958008 259.79003906 C233.26757369 256.86161425 226.76450319 257.08785541 219.64453125 259.68359375 C216.21170437 261.25546464 212.93925187 263.08929305 209.66210938 264.96044922 C206.6421112 266.67635727 203.59623328 268.34073906 200.546875 270.00390625 C193.65138902 273.77073562 186.78245443 277.58444724 179.91705322 281.40576172 C176.99158136 283.0332811 174.06407888 284.65712929 171.13671875 286.28125 C166.68088286 288.75398522 162.22657557 291.22944106 157.7734375 293.70703125 C152.61315067 296.57746915 147.44801907 299.43906062 142.28060913 302.29664612 C137.2337548 305.08908167 132.19870262 307.9024208 127.1640625 310.71679688 C124.20398395 312.3590067 121.2294644 313.97143035 118.25 315.578125 C116.52048622 316.53062 114.79129678 317.48370426 113.0625 318.4375 C112.28519531 318.84581055 111.50789062 319.25412109 110.70703125 319.67480469 C105.73218516 322.45899679 103.71129381 324.75832132 102.0625 330.4375 C101.68876555 332.80097562 101.39856723 335.17898472 101.1875 337.5625 C98.95260574 355.98675022 88.99477415 371.57526336 74.5625 383 C52.00681199 399.29021912 25.81111533 404.22557293 -1.64208984 401.1328125 C-24.23425087 397.4830589 -45.7644654 385.56481641 -59.34765625 366.93359375 C-69.03560043 351.72328336 -73.30275805 335.47418019 -70.28125 317.54296875 C-67.03701201 303.96471405 -60.83625689 293.20558023 -50.9375 283.4375 C-49.79667969 282.28121094 -49.79667969 282.28121094 -48.6328125 281.1015625 C-31.38933223 264.53651424 -7.21229114 257.19682545 16.35546875 257.32421875 C18.59939636 257.41812048 20.81415942 257.57687123 23.05078125 257.76953125 C23.78087402 257.82705566 24.5109668 257.88458008 25.26318359 257.94384766 C26.70896916 258.06093703 28.15361093 258.19366493 29.59619141 258.34521484 C39.75185188 259.15529209 47.85735898 254.78841153 56.375 249.75 C58.4066106 248.57519328 60.4392107 247.40209652 62.47265625 246.23046875 C63.5414502 245.61220215 64.61024414 244.99393555 65.71142578 244.35693359 C70.93347702 241.36583882 76.2050195 238.46606246 81.47964478 235.56915283 C84.563364 233.87549222 87.64485478 232.17778579 90.7265625 230.48046875 C91.33867081 230.14345947 91.95077911 229.8064502 92.58143616 229.45922852 C98.95878388 225.94674348 105.32412682 222.41273137 111.6875 218.875 C112.79464355 218.25955322 113.90178711 217.64410645 115.04248047 217.01000977 C118.38268068 215.15285455 121.72263723 213.29526198 125.0625 211.4375 C140.30468665 202.9592011 155.55654496 194.49927079 170.83251953 186.08203125 C176.76932326 182.81021318 182.70124637 179.53023274 188.61889648 176.22387695 C191.40877691 174.6673193 194.20451412 173.12153765 197.00195312 171.57861328 C198.43550692 170.78472342 199.86630404 169.98584371 201.29492188 169.18310547 C217.70738968 159.97653938 217.70738968 159.97653938 226.0625 159.4375 C226.78179688 159.37046875 227.50109375 159.3034375 228.2421875 159.234375 C241.71267995 158.56324726 252.76755657 165.0215209 264.0625 171.4375 C264.84206055 171.87739258 265.62162109 172.31728516 266.42480469 172.77050781 C271.6514251 175.7235801 276.85755061 178.71150424 282.05908203 181.70849609 C287.63772652 184.92000319 293.2247159 188.1169317 298.8125 191.3125 C299.40391785 191.65084869 299.99533569 191.98919739 300.60467529 192.33779907 C310.07656685 197.75483996 319.58435093 203.10512721 329.11132812 208.42480469 C338.27922441 213.54769626 347.40070628 218.74919625 356.51074219 223.97412109 C360.81788987 226.44417881 365.12733744 228.91020764 369.4375 231.375 C370.30109131 231.8690332 371.16468262 232.36306641 372.05444336 232.87207031 C377.52540137 235.99833203 383.00899769 239.10134661 388.49951172 242.19311523 C397.31586775 247.15821029 406.08711963 252.18913011 414.8125 257.3125 C423.25002312 262.26240356 431.75152779 267.07946377 440.3125 271.8125 C443.71431984 273.69869664 447.11577208 275.5855544 450.51708984 277.47265625 C452.95052093 278.82227463 455.38609445 280.16793872 457.82275391 281.51171875 C460.98867194 283.2593379 464.14630829 285.02123061 467.29943848 286.79180908 C469.06146708 287.77697807 470.83090694 288.74885549 472.60058594 289.72021484 C485.36911774 296.91829098 495.89186969 305.69790049 500.45385742 319.97558594 C501.47087856 324.08936099 501.55131269 328.09182722 501.5 332.3125 C501.48864014 333.62686035 501.48864014 333.62686035 501.47705078 334.96777344 C501.18243639 346.56740876 497.35913085 355.14330624 489.17016602 363.32910156 C483.46487705 368.58085415 477.50396676 372.3466558 470.6875 376 C468.45831816 377.22132647 466.22915203 378.44268161 464 379.6640625 C462.8553125 380.28571289 461.710625 380.90736328 460.53125 381.54785156 C454.89514107 384.61819807 449.2938602 387.75077961 443.6875 390.875 C441.41953905 392.13459765 439.15130854 393.39371005 436.8828125 394.65234375 C430.10814418 398.41184853 423.33517774 402.1744107 416.5625 405.9375 C414.31250768 407.18751382 412.06250768 408.43751382 409.8125 409.6875 C408.69875 410.30625 407.585 410.925 406.4375 411.5625 C396.3125 417.1875 396.3125 417.1875 392.93652344 419.06298828 C390.68971721 420.31125009 388.44297227 421.55962224 386.19628906 422.80810547 C380.52292553 425.96061379 374.84846278 429.11111316 369.171875 432.2578125 C363.56005343 435.36872657 357.95402197 438.48992048 352.34912109 441.61328125 C349.03712258 443.45158558 345.71648183 445.27350311 342.39453125 447.09375 C340.30450508 448.24967024 338.2146533 449.40590584 336.125 450.5625 C335.16561523 451.08279785 334.20623047 451.6030957 333.21777344 452.13916016 C327.82397035 455.1423716 323.90091029 457.76067942 321.0625 463.4375 C320.53747619 469.73778571 321.07634925 472.27866613 325.0625 477.4375 C327.37139432 478.98667512 329.47899484 480.23893531 331.94140625 481.46875 C332.61713181 481.82178192 333.29285736 482.17481384 333.98905945 482.5385437 C336.19384323 483.68608193 338.40905834 484.81168266 340.625 485.9375 C342.16643299 486.73505676 343.70711628 487.53406401 345.24707031 488.33447266 C349.11972839 490.34328785 353.00080181 492.33516943 356.88482666 494.32189941 C361.25815451 496.56231216 365.61938452 498.82607851 369.98217773 501.08691406 C372.2059861 502.23916665 374.43076289 503.38955206 376.65649414 504.53808594 C383.344655 507.99642766 389.97128895 511.54826504 396.5625 515.1875 C406.12971671 520.46838741 415.83387073 525.46306256 425.5625 530.4375 C437.23710842 536.40737518 448.8347453 542.4787656 460.3046875 548.8359375 C463.44698646 550.57257202 466.6120362 552.2401298 469.8203125 553.8515625 C482.13797271 560.0544359 491.85628693 566.63590539 498.0625 579.4375 C498.40152344 580.10910156 498.74054687 580.78070312 499.08984375 581.47265625 C503.26781134 591.46512252 502.26826697 604.82411793 498.37890625 614.73046875 C491.70011082 628.46460892 480.56200994 635.54365339 467.4375 642.5625 C465.03764509 643.86612848 462.64186689 645.17716991 460.24609375 646.48828125 C459.64416702 646.8166246 459.0422403 647.14496796 458.42207336 647.48326111 C452.37948444 650.78863541 446.43500933 654.25559567 440.5 657.75 C432.95448501 662.18341198 425.374603 666.53176479 417.70996094 670.75561523 C409.32087381 675.38319872 401.01606943 680.15687582 392.70507812 684.92285156 C388.47256683 687.34880316 384.23614174 689.76789538 380 692.1875 C378.24997966 693.1874644 376.49998027 694.18746547 374.75 695.1875 C337.53173813 716.45507821 337.53173813 716.45507821 335.78085327 717.45558167 C334.61713413 718.12056548 333.4534175 718.78555368 332.28970337 719.45054626 C329.38492617 721.11044437 326.48010543 722.77026617 323.57519531 724.42993164 C318.27747138 727.45678576 312.98009242 730.48423654 307.6842804 733.51443481 C295.23908801 740.63536039 282.78384065 747.73746978 270.29614258 754.78369141 C261.38658277 759.81304222 252.50351898 764.88814804 243.62451172 769.97119141 C239.41763877 772.37889857 235.20872513 774.78303248 231 777.1875 C229.24998983 778.18748221 227.49999013 779.18748273 225.75 780.1875 C219.625 783.6875 219.625 783.6875 213.5 787.1875 C212.35756836 787.84032959 211.21513672 788.49315918 210.03808594 789.16577148 C207.6689979 790.51954194 205.29985163 791.87321038 202.93066406 793.22680664 C197.50387714 796.32741311 192.07739203 799.42854103 186.65255737 802.53256226 C174.21794594 809.6474565 161.77323342 816.74345494 149.29614258 823.78369141 C140.39686725 828.80723674 131.5240261 833.87642815 122.65527344 838.95361328 C118.29235371 841.45058372 113.92731334 843.94384168 109.5625 846.4375 C107.80337541 847.44269082 106.04426081 848.44789912 104.28515625 849.453125 C93.35677083 855.69791667 82.42838542 861.94270833 71.5 868.1875 C70.35668213 868.84097412 69.21336426 869.49444824 68.03540039 870.16772461 C65.67589307 871.51609037 63.31563886 872.86313599 60.95483398 874.20922852 C55.41704312 877.36814752 49.88446221 880.53506161 44.37159729 883.73733521 C41.87151644 885.18886026 39.36838029 886.63507127 36.86502075 888.08093262 C35.12375149 889.08952153 33.38686296 890.10566187 31.65014648 891.12207031 C21.55094865 896.94896492 12.05111971 902.41411243 0.125 902.0625 C-0.74415039 902.04268066 -1.61330078 902.02286133 -2.50878906 902.00244141 C-17.13589091 901.38006937 -28.2182457 893.56720406 -40.484375 886.25390625 C-46.73892738 882.53163407 -53.07363149 878.96871955 -59.4375 875.4375 C-68.66750869 870.30246486 -77.80989992 865.03535693 -86.91796875 859.6875 C-95.07302176 854.9117304 -103.30878429 850.291366 -111.56665039 845.69628906 C-119.91225586 841.04064229 -128.16854185 836.24302757 -136.41015625 831.40625 C-142.2128197 828.0073284 -148.04423059 824.67658971 -153.9375 821.4375 C-160.85924098 817.63313634 -167.68819191 813.68516344 -174.5 809.6875 C-182.7604776 804.84079121 -191.06853197 800.09433093 -199.4375 795.4375 C-207.80647108 790.78066738 -216.11445193 786.03409219 -224.375 781.1875 C-231.96303341 776.73560906 -239.58463276 772.36576352 -247.28955078 768.11962891 C-255.66849855 763.49773575 -263.96326467 758.72993424 -272.26416016 753.96972656 C-276.65267911 751.45444392 -281.04526909 748.94629315 -285.4375 746.4375 C-287.18752004 745.43753507 -288.93752003 744.43753505 -290.6875 743.4375 C-291.986875 742.695 -291.986875 742.695 -293.3125 741.9375 C-331.375 720.1875 -369.4375 698.4375 -407.5 676.6875 C-408.64235107 676.03475098 -409.78470215 675.38200195 -410.96166992 674.70947266 C-413.33172961 673.35516456 -415.70167254 672.00065243 -418.0715332 670.64599609 C-424.67397758 666.87216238 -431.27864644 663.10227705 -437.88592529 659.33691406 C-443.10987113 656.35888585 -448.32706347 653.36916924 -453.54345703 650.37792969 C-456.92844525 648.44267675 -460.32128549 646.52173816 -463.71484375 644.6015625 C-465.85186004 643.38072901 -467.98859199 642.15939764 -470.125 640.9375 C-471.08631836 640.39851074 -472.04763672 639.85952148 -473.03808594 639.30419922 C-483.1302004 633.49613547 -490.74072512 626.98095672 -495.9375 616.4375 C-496.2778125 615.77621094 -496.618125 615.11492188 -496.96875 614.43359375 C-500.79548973 605.38051967 -500.41235422 592.57080185 -497.3125 583.375 C-491.01179916 569.0173054 -480.86737996 561.37508226 -467.0625 554.5625 C-465.85293816 553.95271936 -464.64412525 553.34145105 -463.43603516 552.72875977 C-461.03745387 551.51345208 -458.63602807 550.30454606 -456.23242188 549.09912109 C-451.89620733 546.91237863 -447.60132256 544.65287695 -443.3125 542.375 C-434.9587091 537.96143513 -426.57543636 533.6053638 -418.19042969 529.25146484 C-411.97087077 526.02014286 -405.76053872 522.77239107 -399.5625 519.5 C-391.8736955 515.44127567 -384.15828005 511.43502596 -376.4375 507.4375 C-357.11129494 497.45522386 -357.11129494 497.45522386 -337.953125 487.15625 C-336.9422583 486.6008252 -335.9313916 486.04540039 -334.88989258 485.47314453 C-332.91348501 484.38451191 -330.9392759 483.29187628 -328.9675293 482.19482422 C-327.63588745 481.46030029 -327.63588745 481.46030029 -326.27734375 480.7109375 C-325.48706787 480.27185059 -324.69679199 479.83276367 -323.88256836 479.38037109 C-321.9375 478.4375 -321.9375 478.4375 -319.9375 478.4375 C-319.628125 477.65375 -319.31875 476.87 -319 476.0625 C-317.9375 473.4375 -317.9375 473.4375 -316.9375 471.4375 C-316.84666692 469.42519974 -316.84666692 469.42519974 -317.0625 467.1875 C-317.10632813 466.43984375 -317.15015625 465.6921875 -317.1953125 464.921875 C-318.92973292 459.11613087 -322.8009319 456.31689557 -327.8671875 453.46484375 C-329.84263157 452.42281253 -331.82484454 451.3935451 -333.8125 450.375 C-335.98929146 449.22847845 -338.1650485 448.0799911 -340.33984375 446.9296875 C-341.44312012 446.34928711 -342.54639648 445.76888672 -343.68310547 445.17089844 C-348.63096395 442.53550495 -353.50460977 439.7752659 -358.375 437 C-360.27981131 435.91772828 -362.18476058 434.83569935 -364.08984375 433.75390625 C-365.52239502 432.94010498 -365.52239502 432.94010498 -366.98388672 432.10986328 C-372.12408728 429.19943397 -377.28134899 426.31954595 -382.4375 423.4375 C-391.39697138 418.42713739 -400.34032097 413.38920879 -409.2734375 408.33203125 C-416.31696382 404.34713211 -423.37444226 400.38766327 -430.4375 396.4375 C-440.57646216 390.76611412 -450.70362549 385.07459395 -460.8046875 379.3359375 C-463.89820126 377.5807121 -467.0015947 375.85104235 -470.1328125 374.1640625 C-483.17541122 367.08632665 -493.7057202 358.36119792 -498.32446289 343.890625 C-501.19780443 332.39268165 -499.95953504 318.62430694 -493.9375 308.4375 C-486.15996942 297.59794951 -475.06231776 291.29114759 -463.5625 285 C-461.34182104 283.77066295 -459.121793 282.54014953 -456.90234375 281.30859375 C-455.75749512 280.67421387 -454.61264648 280.03983398 -453.43310547 279.38623047 C-447.63503595 276.16229429 -441.88121487 272.86037651 -436.125 269.5625 C-434.95030153 268.8901747 -433.77557811 268.21789299 -432.60083008 267.5456543 C-429.04571748 265.51077034 -425.49152323 263.47428584 -421.9375 261.4375 C-417.20915982 258.72772133 -412.48020072 256.0190298 -407.75 253.3125 C-407.16926727 252.98012329 -406.58853455 252.64774658 -405.99020386 252.30529785 C-397.75020382 247.59115597 -389.47985173 242.93392409 -381.1875 238.3125 C-373.09028675 233.79974829 -365.05470806 229.19611303 -357.0625 224.5 C-347.46172129 218.85871268 -337.75798376 213.42537732 -328.00878906 208.04541016 C-319.54998188 203.36506413 -311.1891336 198.53563666 -302.85546875 193.63671875 C-294.72938766 188.87056287 -286.51990211 184.26552189 -278.28808594 179.68505859 C-271.16091294 175.70913798 -264.0980136 171.63566651 -257.0625 167.5 C-247.39178564 161.81904392 -237.62249166 156.33490109 -227.80664062 150.90917969 C-218.29829629 145.65081865 -208.85558464 140.28531996 -199.43505859 134.87158203 C-195.25236288 132.46990514 -191.06334864 130.07930013 -186.875 127.6875 C-185.12496951 126.68755335 -183.37497038 125.68755184 -181.625 124.6875 C-177.54166667 122.35416667 -173.45833333 120.02083333 -169.375 117.6875 C-168.23256836 117.03467041 -167.09013672 116.38184082 -165.91308594 115.70922852 C-163.5439979 114.35545806 -161.17485163 113.00178962 -158.80566406 111.64819336 C-153.37895603 108.54763196 -147.9525344 105.44657597 -142.52780151 102.34255981 C-140.14819786 100.98101042 -137.76835378 99.61988157 -135.38848877 98.25878906 C-134.21743814 97.5888993 -133.0464981 96.91881619 -131.87567139 96.24853516 C-125.67875845 92.70109801 -119.47362781 89.17008002 -113.2421875 85.68359375 C-112.18813721 85.09280029 -111.13408691 84.50200684 -110.0480957 83.89331055 C-108.07751263 82.79051007 -106.10482867 81.69145159 -104.12963867 80.59692383 C-93.05437185 74.39628055 -88.37808537 68.75058783 -84.125 56.8125 C-79.21062934 43.19176688 -72.21368529 32.59225326 -61.9375 22.4375 C-61.28136719 21.77105469 -60.62523437 21.10460937 -59.94921875 20.41796875 C-43.88759641 5.18178311 -21.47560023 -0.01297737 0 0 Z M206 530.75 C205.23671387 531.1816748 204.47342773 531.61334961 203.68701172 532.05810547 C196.30246632 536.25323405 188.97571525 540.55039318 181.64770508 544.84326172 C173.85660543 549.40500702 166.03078957 553.90380556 158.1875 558.375 C149.09152133 563.56160792 140.00537479 568.76431655 130.9375 574 C129.33841797 574.92329102 129.33841797 574.92329102 127.70703125 575.86523438 C124.49192477 577.72220194 121.27714622 579.57973579 118.0625 581.4375 C104.11745435 589.4964293 90.16014925 597.53228053 76.16784668 605.50881958 C67.89470048 610.22652978 59.65502206 614.99854081 51.4375 619.8125 C44.35335007 623.95167177 37.26683355 628.08595164 30.125 632.125 C29.08835205 632.72223877 29.08835205 632.72223877 28.03076172 633.33154297 C20.29363391 637.66486461 13.08359859 639.96099041 4.1875 639.875 C3.46175781 639.89498047 2.73601562 639.91496094 1.98828125 639.93554688 C-9.37327886 639.92559805 -19.01682119 634.03182502 -28.625 628.5625 C-29.81065403 627.89546301 -30.99661391 627.22896942 -32.18286133 626.56298828 C-40.8750107 621.66880655 -49.48341318 616.63294486 -58.08007812 611.57324219 C-66.00781153 606.92730709 -74.05514771 602.53269906 -82.15136719 598.1887207 C-89.48319948 594.24795067 -96.72785381 590.175978 -103.94091797 586.02246094 C-110.67910422 582.14493297 -117.45832178 578.34543229 -124.25 574.5625 C-132.55945577 569.93081165 -140.80164622 565.2004011 -149 560.375 C-157.93385806 555.12151098 -166.97193119 550.10574848 -176.10913086 545.21533203 C-183.88849831 541.04210247 -191.5568242 536.69639366 -199.16479492 532.21826172 C-205.03222291 528.80514811 -210.25817775 526.16623237 -217.1875 526.0625 C-218.03828125 526.03414062 -218.8890625 526.00578125 -219.765625 525.9765625 C-229.45744466 527.38497964 -238.30717018 533.06570591 -246.875 537.5625 C-248.17248994 538.23906966 -249.47018106 538.91525363 -250.76806641 539.59106445 C-254.49461675 541.53341785 -258.21654242 543.48445359 -261.9375 545.4375 C-262.86933105 545.92621582 -263.80116211 546.41493164 -264.76123047 546.91845703 C-268.60136255 548.93397929 -272.43844892 550.95517951 -276.2734375 552.98046875 C-281.65166302 555.81826679 -287.04483171 558.62727376 -292.4375 561.4375 C-295.34699594 562.95510968 -298.25631405 564.47305951 -301.16552734 565.99121094 C-302.94947531 566.92199373 -304.73363787 567.85236541 -306.51806641 568.78222656 C-311.22501628 571.23665111 -315.92274464 573.70729453 -320.60839844 576.20214844 C-322.21555675 577.05458251 -323.82578725 577.90124075 -325.43847656 578.74316406 C-327.92527733 580.04349582 -330.400842 581.36330276 -332.875 582.6875 C-333.62692627 583.07566895 -334.37885254 583.46383789 -335.15356445 583.86376953 C-339.75582868 586.35985904 -342.48003531 588.63570199 -344.9375 593.4375 C-345.55400566 595.73127904 -345.55400566 595.73127904 -345.4375 597.9375 C-345.4478125 598.6490625 -345.458125 599.360625 -345.46875 600.09375 C-344.37051553 604.93890209 -341.8032482 607.82498315 -337.8125 610.6484375 C-336.52884091 611.38394681 -335.23639286 612.1042402 -333.9375 612.8125 C-333.20893799 613.2254834 -332.48037598 613.6384668 -331.72973633 614.06396484 C-330.07116677 615.00327488 -328.40922847 615.93665232 -326.74462891 616.86523438 C-323.67656221 618.58365058 -320.62450861 620.32835336 -317.57421875 622.078125 C-312.83035735 624.799218 -308.08341128 627.51471428 -303.33203125 630.22265625 C-302.72037109 630.57129227 -302.10871094 630.91992828 -301.47851562 631.27912903 C-300.24319055 631.98323628 -299.00785934 632.68733278 -297.77252197 633.39141846 C-292.45103132 636.42501328 -287.13149506 639.46203212 -281.8125 642.5 C-281.23277435 642.8310675 -280.65304871 643.16213501 -280.05575562 643.50323486 C-270.59536618 648.90687017 -261.15531093 654.3452178 -251.72167969 659.79541016 C-240.326041 666.37538357 -228.89860643 672.89941372 -217.46972656 679.42138672 C-212.2070208 682.42483176 -206.94632814 685.43179965 -201.68548584 688.43850708 C-198.76957328 690.10498282 -195.85353002 691.77122982 -192.9375 693.4375 C-191.77083271 694.10416557 -190.60416604 694.77083224 -189.4375 695.4375 C-188.86 695.7675 -188.2825 696.0975 -187.6875 696.4375 C-182.43750001 699.4375 -182.43750001 699.4375 -180.68756104 700.43746948 C-179.52069593 701.10424664 -178.35382581 701.77101503 -177.18695068 702.43777466 C-174.27327909 704.10267906 -171.35969422 705.76773486 -168.44628906 707.43310547 C-163.16065109 710.45430142 -157.87436097 713.47432799 -152.58488464 716.48880005 C-149.61866606 718.17929075 -146.6529488 719.87065935 -143.6875 721.5625 C-143.1045517 721.89505798 -142.52160339 722.22761597 -141.92098999 722.57025146 C-133.83504031 727.18538047 -125.78177229 731.85371812 -117.75 736.5625 C-108.661828 741.88978942 -99.49693841 747.06513538 -90.29223633 752.18798828 C-82.11699662 756.748811 -74.02947544 761.44771626 -65.95703125 766.1875 C-57.81111018 770.95792175 -49.58666161 775.57707975 -41.3347168 780.16113281 C-32.7141952 784.96394642 -24.1951622 789.93025181 -15.7265625 794.99609375 C-9.27342139 798.81457311 -3.83871108 801.70910526 3.8125 801.8125 C4.75609375 801.84085938 5.6996875 801.86921875 6.671875 801.8984375 C15.69781692 800.67140853 23.44869801 795.68059612 31.125 791.0625 C33.25015781 789.80275514 35.37649762 788.54500253 37.50390625 787.2890625 C38.58816895 786.6487207 39.67243164 786.00837891 40.78955078 785.34863281 C46.00539381 782.30301002 51.28239164 779.36983479 56.5625 776.4375 C64.78493564 771.86259177 72.94833253 767.20178182 81.0625 762.4375 C90.21163289 757.06553207 99.43653131 751.84673475 108.70703125 746.6875 C115.87603695 742.68785548 122.98342763 738.59401956 130.0625 734.4375 C139.21163289 729.06553207 148.43653131 723.84673475 157.70703125 718.6875 C164.87603772 714.68785504 171.98341084 710.59399216 179.0625 706.4375 C187.2813303 701.61215534 195.5500563 696.88991413 203.875 692.25 C213.46203589 686.9065628 222.98538393 681.46717228 232.47021484 675.94482422 C246.8387468 667.59001952 261.2462696 659.30548011 275.72509766 651.14331055 C284.66543244 646.10304383 293.57620285 641.01198582 302.48291016 635.91259766 C305.05336355 634.44272454 307.62594193 632.97664254 310.19921875 631.51171875 C314.5457668 629.03677213 318.88687465 626.55249621 323.22509766 624.06298828 C325.22838714 622.91534576 327.23344152 621.77078134 329.23974609 620.62841797 C332.51850492 618.76003434 335.79095104 616.88097372 339.0625 615 C340.08384033 614.42072754 341.10518066 613.84145508 342.1574707 613.24462891 C350.88627697 608.49542198 350.88627697 608.49542198 356.0625 600.4375 C356.42770119 595.98204547 356.49035241 593.40989185 354.6875 589.3125 C348.30731361 582.32467681 338.44788061 578.45806842 330.125 574.1875 C327.89305567 573.03418987 325.66128615 571.88054137 323.4296875 570.7265625 C322.34139648 570.16485352 321.25310547 569.60314453 320.13183594 569.02441406 C315.99621389 566.88620667 311.87009994 564.7304454 307.75 562.5625 C307.00758057 562.17191406 306.26516113 561.78132812 305.50024414 561.37890625 C299.69577954 558.31656964 293.91384796 555.21294563 288.13305664 552.10620117 C277.23044973 546.24707116 266.3033456 540.44220546 255.3125 534.75 C254.20068359 534.17411133 253.08886719 533.59822266 251.94335938 533.00488281 C248.98580179 531.47702347 246.02555584 529.95466514 243.0625 528.4375 C242.25498291 528.02387207 241.44746582 527.61024414 240.61547852 527.18408203 C227.96533057 520.77101076 217.68315659 524.01904175 206 530.75 Z "
            transform="translate(598.9375,148.5625)" />
    </symbol>
</svg>